<?xml version="1.0" encoding="UTF-8"?><svg id="uuid-d9f505c3-194d-4354-93e9-d693831b1a22" xmlns="http://www.w3.org/2000/svg" viewBox="0 0 38 38"><title>Red Hat Advanced Cluster Security for Kubernetes icon</title>
<desc>RHACS, management, edge</desc>
<metadata><?xpacket begin="﻿" id="W5M0MpCehiHzreSzNTczkc9d"?>
<x:xmpmeta xmlns:x="adobe:ns:meta/" x:xmptk="Adobe XMP Core 8.0-c001 1.000000, 0000/00/00-00:00:00        ">
   <rdf:RDF xmlns:rdf="http://www.w3.org/1999/02/22-rdf-syntax-ns#">
      <rdf:Description rdf:about=""
            xmlns:xmp="http://ns.adobe.com/xap/1.0/"
            xmlns:dc="http://purl.org/dc/elements/1.1/"
            xmlns:cq="http://www.day.com/jcr/cq/1.0"
            xmlns:xmpRights="http://ns.adobe.com/xap/1.0/rights/">
         <xmp:rhcc-effective-on>2024-03-01T15:26:32.452Z</xmp:rhcc-effective-on>
         <xmp:rhcc-metadata-complete-moderator>pending</xmp:rhcc-metadata-complete-moderator>
         <xmp:rhcc-translation-id>TRAfa6ee18d-f175-4af3-b896-3e239d8ad608</xmp:rhcc-translation-id>
         <xmp:brand-content-type>Icon</xmp:brand-content-type>
         <xmp:CreateDate>2024-03-01T15:26:32.452Z</xmp:CreateDate>
         <xmp:rhcc-effective-on-set-on-upload>true</xmp:rhcc-effective-on-set-on-upload>
         <xmp:rhcc-metadata-complete-uploader>pending</xmp:rhcc-metadata-complete-uploader>
         <xmp:rhcc-file-last-modified>2024-03-21T00:40:27.130Z</xmp:rhcc-file-last-modified>
         <xmp:rhcc-audience>rhcc-audience:internal</xmp:rhcc-audience>
         <xmp:rhcc-rights-restricted>no</xmp:rhcc-rights-restricted>
         <xmp:brand-content-subtype>Technology icon</xmp:brand-content-subtype>
         <xmp:rhcc-derivative-id>DERfa6ee18d-f175-4af3-b896-3e239d8ad608</xmp:rhcc-derivative-id>
         <xmp:brand-logo-color>Standard</xmp:brand-logo-color>
         <xmp:rhcc-notify-portal-subscribers-on-change>yes</xmp:rhcc-notify-portal-subscribers-on-change>
         <xmp:rhcc-product>
            <rdf:Bag>
               <rdf:li>rhcc-product:red-hat-advanced-cluster-security-for-kubernetes</rdf:li>
            </rdf:Bag>
         </xmp:rhcc-product>
         <xmp:brand-subtype>
            <rdf:Bag>
               <rdf:li>Technology icon</rdf:li>
            </rdf:Bag>
         </xmp:brand-subtype>
         <dc:format>image/svg+xml</dc:format>
         <dc:modified>2024-05-10T14:02:37.288Z</dc:modified>
         <dc:title>
            <rdf:Alt>
               <rdf:li xml:lang="x-default">Red Hat Advanced Cluster Security for Kubernetes icon</rdf:li>
            </rdf:Alt>
         </dc:title>
         <dc:description>
            <rdf:Alt>
               <rdf:li xml:lang="x-default">RHACS, management, edge</rdf:li>
            </rdf:Alt>
         </dc:description>
         <cq:lastReplicationAction_scene7>Activate</cq:lastReplicationAction_scene7>
         <cq:lastReplicationAction_publish>Activate</cq:lastReplicationAction_publish>
         <cq:lastReplicated_publish>2024-05-10T14:02:38.992Z</cq:lastReplicated_publish>
         <cq:lastReplicatedBy>workflow-process-service</cq:lastReplicatedBy>
         <cq:lastReplicationAction>Activate</cq:lastReplicationAction>
         <cq:lastReplicatedBy_publish>workflow-process-service</cq:lastReplicatedBy_publish>
         <cq:isDelivered>false</cq:isDelivered>
         <cq:lastReplicated>2024-05-10T14:02:38.992Z</cq:lastReplicated>
         <cq:lastReplicatedBy_scene7>workflow-process-service</cq:lastReplicatedBy_scene7>
         <cq:lastReplicated_scene7>2024-05-10T14:02:38.992Z</cq:lastReplicated_scene7>
         <xmpRights:UsageTerms>
            <rdf:Alt>
               <rdf:li xml:lang="x-default">Use technology icons to represent Red Hat products and components. Do not remove the icon from the bounding shape.</rdf:li>
            </rdf:Alt>
         </xmpRights:UsageTerms>
      </rdf:Description>
   </rdf:RDF>
</x:xmpmeta>
                                                                                                    
                                                                                                    
                                                                                                    
                                                                                                    
                                                                                                    
                                                                                                    
                                                                                                    
                                                                                                    
                                                                                                    
                                                                                                    
                                                                                                    
                                                                                                    
                                                                                                    
                                                                                                    
                                                                                                    
                                                                                                    
                                                                                                    
                                                                                                    
                                                                                                    
                                                                                                    
                           
<?xpacket end="w"?></metadata>
<defs><style>.uuid-298101db-3cf4-4846-8725-03c4aa223399{fill:#e00;}.uuid-90524982-eda1-423b-ac3d-b9d28fb57661{fill:#fff;}.uuid-a8fcb83c-ae11-4dea-8556-fcb9b1a41ef6{fill:#4d4d4d;}</style></defs><rect x="1" y="1" width="36" height="36" rx="9" ry="9"/><path class="uuid-a8fcb83c-ae11-4dea-8556-fcb9b1a41ef6" d="m28,2.25c4.27338,0,7.75,3.47664,7.75,7.75v18c0,4.27336-3.47662,7.75-7.75,7.75H10c-4.27338,0-7.75-3.47664-7.75-7.75V10c0-4.27336,3.47662-7.75,7.75-7.75h18m0-1.25H10C5.02942,1,1,5.02944,1,10v18c0,4.97056,4.02942,9,9,9h18c4.97058,0,9-4.02944,9-9V10c0-4.97056-4.02942-9-9-9h0Z"/><path class="uuid-90524982-eda1-423b-ac3d-b9d28fb57661" d="m27.12988,11.08887l-8-1.7002c-.08594-.01855-.17383-.01855-.25977,0l-8,1.7002c-.28906.06152-.49512.31641-.49512.61133v9.35596c.125,3.92529,2.28711,6.94873,5.78516,8.0874.92285.30029,1.875.44482,2.81738.44482,2.12537,0,4.19141-.74542,5.75293-2.08301v.71484c0,.34521.28027.625.625.625s.625-.27979.625-.625v-2.25098c0-.34521-.28027-.625-.625-.625h-2.17676c-.34473,0-.625.27979-.625.625s.28027.625.625.625h.69177c-1.92786,1.62561-4.75482,2.19556-7.32263,1.36084-3.02051-.9834-4.81445-3.51221-4.92285-6.91846v-8.83008l7.375-1.56738,7.375,1.56738v8.81006c-.02441.76855-.13477,1.50098-.32715,2.17627-.09473.33203.09766.67773.42871.77246.33398.09326.67773-.09814.77246-.42969.2207-.77344.34766-1.60742.37598-2.49902v-9.33643c0-.29492-.20605-.5498-.49512-.61133Z"/><path class="uuid-298101db-3cf4-4846-8725-03c4aa223399" d="m19,24.68652c-.1084,0-.21582-.02783-.31252-.08398l-2-1.15479c-.19334-.11133-.31248-.31787-.31248-.54102v-2.30908c0-.22314.11914-.42969.31248-.54102l2-1.15479c.19338-.1123.43166-.1123.625,0l2,1.15479c.19338.11133.31252.31787.31252.54102v2.30908c0,.22314-.11914.42969-.31252.54102l-2,1.15479c-.09666.05615-.20408.08398-.31248.08398Zm-1.375-2.14062l1.375.79395,1.375-.79395v-1.5874l-1.375-.79395-1.375.79395v1.5874Z"/><path class="uuid-298101db-3cf4-4846-8725-03c4aa223399" d="m23,21.4707c-.24609,0-.47949-.14648-.57812-.38867-.13086-.31934.02246-.68457.3418-.81494.37109-.15186.61133-.50879.61133-.91016,0-.49902-.37793-.91553-.87891-.96826-.33301-.03516-.57812-.32568-.55862-.65918l.00881-.1582c0-1.3291-1.08105-2.41064-2.41016-2.41064-.95996,0-1.82812.56982-2.21094,1.45117-.11621.26709-.39844.41895-.68945.36523-.10156-.01953-.20703-.03076-.31445-.03076-.93555,0-1.69629.76123-1.69629,1.69678,0,.55566.27344,1.07764.73145,1.39502.2832.19678.35352.58643.15723.87012-.19531.28174-.58594.35449-.87012.15723-.79395-.55127-1.26855-1.45703-1.26855-2.42236,0-1.64844,1.36719-2.98779,3.0166-2.9458.6543-1.09863,1.84375-1.78662,3.14453-1.78662,1.91895,0,3.49805,1.48486,3.64844,3.3667.85059.31982,1.44043,1.13477,1.44043,2.07959,0,.91113-.54492,1.72266-1.38867,2.06738-.07715.03174-.15723.04639-.23633.04639Z"/></svg>