<svg version="1.1" id="Layer_1" xmlns="http://www.w3.org/2000/svg" xmlns:xlink="http://www.w3.org/1999/xlink" x="0px" y="0px"
	 viewBox="0 0 1600 422" width="1600" height="422" style="enable-background:new 0 0 1600 422;" xml:space="preserve">
<style type="text/css">
	.st0{clip-path:url(#SVGID_3_);}
	.st1{opacity:0.3;}
	.st2{clip-path:url(#SVGID_16_);}
	.st3{clip-path:url(#SVGID_17_);}
	.st4{clip-path:url(#SVGID_18_);}
	.st5{clip-path:url(#SVGID_19_);}
	.st6{clip-path:url(#SVGID_20_);}
	.st7{clip-path:url(#SVGID_21_);}
	.st8{clip-path:url(#SVGID_22_);}
	.st9{clip-path:url(#SVGID_23_);}
	.st10{clip-path:url(#SVGID_24_);}
	.st11{clip-path:url(#SVGID_25_);}
	.st12{clip-path:url(#SVGID_26_);}
	.st13{opacity:9.000000e-02;clip-path:url(#SVGID_27_);}
	.st14{fill:#FBFBFB;}
	.st15{fill:#E7E7E7;}
	.st16{fill:#CECECE;}
	.st17{opacity:0.15;clip-path:url(#SVGID_27_);}
	.st18{opacity:0.19;clip-path:url(#SVGID_27_);}
	.st19{opacity:0.3;clip-path:url(#SVGID_27_);}
	.st20{opacity:0.6;clip-path:url(#SVGID_27_);}
	.st21{opacity:0.57;clip-path:url(#SVGID_27_);}
	.st22{opacity:0.17;clip-path:url(#SVGID_27_);}
	.st23{opacity:0.42;clip-path:url(#SVGID_27_);}
	.st24{opacity:0.3;clip-path:url(#SVGID_29_);}
	.st25{opacity:9.000000e-02;}
	.st26{fill:none;stroke:#FFFFFF;stroke-miterlimit:10;}
	.st27{opacity:0.15;}
	.st28{opacity:0.19;}
	.st29{opacity:0.6;}
	.st30{opacity:0.57;}
	.st31{opacity:0.17;}
	.st32{opacity:0.42;}
</style>
<g>
	<g>
		<defs>
			<rect id="SVGID_1_" width="1600" height="422"/>
		</defs>
		<linearGradient id="SVGID_2_" gradientUnits="userSpaceOnUse" x1="800" y1="422" x2="800" y2="-9.094947e-13">
			<stop  offset="0" style="stop-color:#0C98A0"/>
			<stop  offset="0.3545" style="stop-color:#057788"/>
			<stop  offset="0.6557" style="stop-color:#006077"/>
		</linearGradient>
		<use xlink:href="#SVGID_1_"  style="overflow:visible;fill:url(#SVGID_2_);"/>
		<clipPath id="SVGID_3_">
			<use xlink:href="#SVGID_1_"  style="overflow:visible;"/>
		</clipPath>
		<g class="st0">
			<g class="st1">
				<defs>
					<rect id="SVGID_4_" x="533" y="-257.5" class="st1" width="1181.5" height="755.4"/>
				</defs>
				<defs>
					<rect id="SVGID_5_" x="533" y="-257.5" class="st1" width="1181.5" height="755.4"/>
				</defs>
				<defs>
					<rect id="SVGID_6_" x="533" y="-257.5" class="st1" width="1181.5" height="755.4"/>
				</defs>
				<defs>
					<rect id="SVGID_7_" x="533" y="-257.5" class="st1" width="1181.5" height="755.4"/>
				</defs>
				<defs>
					<rect id="SVGID_8_" x="533" y="-257.5" class="st1" width="1181.5" height="755.4"/>
				</defs>
				<defs>
					<rect id="SVGID_9_" x="533" y="-257.5" class="st1" width="1181.5" height="755.4"/>
				</defs>
				<defs>
					<rect id="SVGID_10_" x="533" y="-257.5" class="st1" width="1181.5" height="755.4"/>
				</defs>
				<defs>
					<rect id="SVGID_11_" x="533" y="-257.5" class="st1" width="1181.5" height="755.4"/>
				</defs>
				<defs>
					<rect id="SVGID_12_" x="533" y="-257.5" class="st1" width="1181.5" height="755.4"/>
				</defs>
				<defs>
					<rect id="SVGID_13_" x="533" y="-257.5" class="st1" width="1181.5" height="755.4"/>
				</defs>
				<defs>
					<rect id="SVGID_14_" x="533" y="-257.5" class="st1" width="1181.5" height="755.4"/>
				</defs>
				<defs>
					<rect id="SVGID_15_" x="533" y="-257.5" class="st1" width="1181.5" height="755.4"/>
				</defs>
				<clipPath id="SVGID_16_">
					<use xlink:href="#SVGID_4_"  style="overflow:visible;"/>
				</clipPath>
				<clipPath id="SVGID_17_" class="st2">
					<use xlink:href="#SVGID_5_"  style="overflow:visible;"/>
				</clipPath>
				<clipPath id="SVGID_18_" class="st3">
					<use xlink:href="#SVGID_6_"  style="overflow:visible;"/>
				</clipPath>
				<clipPath id="SVGID_19_" class="st4">
					<use xlink:href="#SVGID_7_"  style="overflow:visible;"/>
				</clipPath>
				<clipPath id="SVGID_20_" class="st5">
					<use xlink:href="#SVGID_8_"  style="overflow:visible;"/>
				</clipPath>
				<clipPath id="SVGID_21_" class="st6">
					<use xlink:href="#SVGID_9_"  style="overflow:visible;"/>
				</clipPath>
				<clipPath id="SVGID_22_" class="st7">
					<use xlink:href="#SVGID_10_"  style="overflow:visible;"/>
				</clipPath>
				<clipPath id="SVGID_23_" class="st8">
					<use xlink:href="#SVGID_11_"  style="overflow:visible;"/>
				</clipPath>
				<clipPath id="SVGID_24_" class="st9">
					<use xlink:href="#SVGID_12_"  style="overflow:visible;"/>
				</clipPath>
				<clipPath id="SVGID_25_" class="st10">
					<use xlink:href="#SVGID_13_"  style="overflow:visible;"/>
				</clipPath>
				<clipPath id="SVGID_26_" class="st11">
					<use xlink:href="#SVGID_14_"  style="overflow:visible;"/>
				</clipPath>
				<clipPath id="SVGID_27_" class="st12">
					<use xlink:href="#SVGID_15_"  style="overflow:visible;"/>
				</clipPath>
				<g class="st13">
					<polygon class="st14" points="818.6,219.4 896.1,261.7 973.5,219.4 896.1,175.5 					"/>
					<polygon class="st15" points="818.6,307.2 896.1,351.9 896.1,260.9 818.6,218.6 					"/>
					<polygon class="st16" points="973.5,308 973.5,219.4 896.1,260.9 896.1,351.9 					"/>
				</g>
				<g class="st17">
					<polygon class="st14" points="1390.9,-55.5 1419.9,-39.6 1449,-55.5 1419.9,-72 					"/>
					<polygon class="st15" points="1390.9,-22.6 1419.9,-5.8 1419.9,-39.9 1390.9,-55.8 					"/>
					<polygon class="st16" points="1449,-22.3 1449,-55.5 1419.9,-39.9 1419.9,-5.8 					"/>
				</g>
				<g class="st18">
					<polygon class="st14" points="1370.1,131.2 1447.5,173.5 1524.9,131.2 1447.5,87.3 					"/>
					<polygon class="st15" points="1370.1,219 1447.5,263.7 1447.5,172.7 1370.1,130.4 					"/>
					<polygon class="st16" points="1524.9,219.8 1524.9,131.2 1447.5,172.7 1447.5,263.7 					"/>
				</g>
				<g class="st17">
					<polygon class="st14" points="1137,-94 1214.5,-51.7 1291.9,-94 1214.5,-137.9 					"/>
					<polygon class="st15" points="1137,-6.2 1214.5,38.5 1214.5,-52.5 1137,-94.8 					"/>
					<polygon class="st16" points="1291.9,-5.4 1291.9,-94 1214.5,-52.5 1214.5,38.5 					"/>
				</g>
				<g class="st19">
					<polygon class="st14" points="1064.7,191.9 1186.7,258.5 1308.7,191.9 1186.7,122.7 					"/>
					<polygon class="st15" points="1064.7,330.2 1186.7,400.6 1186.7,257.3 1064.7,190.6 					"/>
					<polygon class="st16" points="1308.7,331.5 1308.7,191.9 1186.7,257.3 1186.7,400.6 					"/>
				</g>
				<g class="st20">
					<polygon class="st14" points="882.7,99.7 1019.5,174.5 1156.4,99.7 1019.5,22.1 					"/>
					<polygon class="st15" points="882.7,255 1019.5,334 1019.5,173.1 882.7,98.3 					"/>
					<polygon class="st16" points="1156.4,256.4 1156.4,99.7 1019.5,173.1 1019.5,334 					"/>
				</g>
				<g class="st21">
					<polygon class="st14" points="1458.7,-166.6 1537,-123.9 1615.2,-166.6 1537,-211 					"/>
					<polygon class="st15" points="1458.7,-77.9 1537,-32.7 1537,-124.7 1458.7,-167.4 					"/>
					<polygon class="st16" points="1615.2,-77.1 1615.2,-166.6 1537,-124.7 1537,-32.7 					"/>
				</g>
				<g class="st20">
					<polygon class="st14" points="1308.7,235.1 1349.6,257.5 1390.5,235.1 1349.6,211.9 					"/>
					<polygon class="st15" points="1308.7,281.5 1349.6,305.1 1349.6,257 1308.7,234.7 					"/>
					<polygon class="st16" points="1390.5,281.9 1390.5,235.1 1349.6,257 1349.6,305.1 					"/>
				</g>
				<g class="st22">
					<polygon class="st14" points="1483.2,393.2 1557.8,433.9 1632.3,393.2 1557.8,350.9 					"/>
					<polygon class="st15" points="1483.2,477.7 1557.8,520.7 1557.8,433.1 1483.2,392.4 					"/>
					<polygon class="st16" points="1632.3,478.5 1632.3,393.2 1557.8,433.1 1557.8,520.7 					"/>
				</g>
				<g class="st22">
					<polygon class="st14" points="898.1,362.5 1085.6,464.9 1273,362.5 1085.6,256.2 					"/>
					<polygon class="st15" points="898.1,575.1 1085.6,683.3 1085.6,463 898.1,360.6 					"/>
					<polygon class="st16" points="1273,577 1273,362.5 1085.6,463 1085.6,683.3 					"/>
				</g>
				<g class="st22">
					<polygon class="st14" points="1408.7,63.3 1537,133.3 1665.2,63.3 1537,-9.5 					"/>
					<polygon class="st15" points="1408.7,208.7 1537,282.7 1537,132 1408.7,61.9 					"/>
					<polygon class="st16" points="1665.2,210 1665.2,63.3 1537,132 1537,282.7 					"/>
				</g>
				<g class="st23">
					<polygon class="st14" points="1472.8,-51.1 1574.4,4.4 1676,-51.1 1574.4,-108.7 					"/>
					<polygon class="st15" points="1472.8,64.1 1574.4,122.7 1574.4,3.3 1472.8,-52.2 					"/>
					<polygon class="st16" points="1676,65.1 1676,-51.1 1574.4,3.3 1574.4,122.7 					"/>
				</g>
			</g>
			<g>
				<defs>
					<rect id="SVGID_28_" width="1600" height="422"/>
				</defs>
				<clipPath id="SVGID_29_">
					<use xlink:href="#SVGID_28_"  style="overflow:visible;"/>
				</clipPath>
				<g class="st24">
					<g class="st25">
						<polygon class="st26" points="769.2,425.2 855.5,472.4 941.8,425.2 855.5,376.3 						"/>
						<polygon class="st26" points="769.2,523.1 855.5,572.9 855.5,471.5 769.2,424.3 						"/>
						<polygon class="st26" points="941.8,524 941.8,425.2 855.5,471.5 855.5,572.9 						"/>
					</g>
					<g class="st27">
						<polygon class="st26" points="1406.7,119 1439,136.7 1471.4,119 1439,100.7 						"/>
						<polygon class="st26" points="1406.7,155.7 1439,174.4 1439,136.4 1406.7,118.7 						"/>
						<polygon class="st26" points="1471.4,156 1471.4,119 1439,136.4 1439,174.4 						"/>
					</g>
					<g class="st28">
						<polygon class="st26" points="1383.5,327 1469.8,374.1 1556,327 1469.8,278 						"/>
						<polygon class="st26" points="1383.5,424.8 1469.8,474.6 1469.8,373.2 1383.5,326.1 						"/>
						<polygon class="st26" points="1556,425.7 1556,327 1469.8,373.2 1469.8,474.6 						"/>
					</g>
					<g class="st27">
						<polygon class="st26" points="1123.9,76.1 1210.2,123.3 1296.5,76.1 1210.2,27.2 						"/>
						<polygon class="st26" points="1123.9,174 1210.2,223.8 1210.2,122.4 1123.9,75.2 						"/>
						<polygon class="st26" points="1296.5,174.8 1296.5,76.1 1210.2,122.4 1210.2,223.8 						"/>
					</g>
					<g class="st1">
						<polygon class="st26" points="1043.4,394.6 1179.3,468.8 1315.1,394.6 1179.3,317.5 						"/>
						<polygon class="st26" points="1043.4,548.6 1179.3,627.1 1179.3,467.4 1043.4,393.2 						"/>
						<polygon class="st26" points="1315.1,550 1315.1,394.6 1179.3,467.4 1179.3,627.1 						"/>
					</g>
					<g class="st29">
						<polygon class="st26" points="840.6,291.9 993,375.2 1145.5,291.9 993,205.4 						"/>
						<polygon class="st26" points="840.6,464.8 993,552.9 993,373.7 840.6,290.3 						"/>
						<polygon class="st26" points="1145.5,466.4 1145.5,291.9 993,373.7 993,552.9 						"/>
					</g>
					<g class="st30">
						<polygon class="st26" points="1482.3,-4.8 1569.4,42.9 1656.6,-4.8 1569.4,-54.2 						"/>
						<polygon class="st26" points="1482.3,94.1 1569.4,144.4 1569.4,42 1482.3,-5.7 						"/>
						<polygon class="st26" points="1656.6,95 1656.6,-4.8 1569.4,42 1569.4,144.4 						"/>
					</g>
					<g class="st29">
						<polygon class="st26" points="1315.1,442.7 1360.7,467.6 1406.3,442.7 1360.7,416.9 						"/>
						<polygon class="st26" points="1315.1,494.4 1360.7,520.7 1360.7,467.1 1315.1,442.2 						"/>
						<polygon class="st26" points="1406.3,494.9 1406.3,442.7 1360.7,467.1 1360.7,520.7 						"/>
					</g>
					<g class="st31">
						<polygon class="st26" points="1509.6,618.8 1592.6,664.2 1675.6,618.8 1592.6,571.7 						"/>
						<polygon class="st26" points="1509.6,713 1592.6,760.9 1592.6,663.3 1509.6,617.9 						"/>
						<polygon class="st26" points="1675.6,713.8 1675.6,618.8 1592.6,663.3 1592.6,760.9 						"/>
					</g>
					<g class="st31">
						<polygon class="st26" points="857.8,584.7 1066.6,698.7 1275.4,584.7 1066.6,466.3 						"/>
						<polygon class="st26" points="857.8,821.4 1066.6,942 1066.6,696.6 857.8,582.5 						"/>
						<polygon class="st26" points="1275.4,823.6 1275.4,584.7 1066.6,696.6 1066.6,942 						"/>
					</g>
					<g class="st31">
						<polygon class="st26" points="1426.5,251.3 1569.4,329.4 1712.3,251.3 1569.4,170.3 						"/>
						<polygon class="st26" points="1426.5,413.3 1569.4,495.8 1569.4,327.9 1426.5,249.8 						"/>
						<polygon class="st26" points="1712.3,414.8 1712.3,251.3 1569.4,327.9 1569.4,495.8 						"/>
					</g>
					<g class="st32">
						<polygon class="st26" points="1498,123.9 1611.1,185.7 1724.3,123.9 1611.1,59.7 						"/>
						<polygon class="st26" points="1498,252.2 1611.1,317.5 1611.1,184.5 1498,122.7 						"/>
						<polygon class="st26" points="1724.3,253.4 1724.3,123.9 1611.1,184.5 1611.1,317.5 						"/>
					</g>
				</g>
			</g>
		</g>
	</g>
</g>
</svg>
