<svg id="f4156b09-518a-47e5-a6a8-4fc7723d1593" data-name="Layer 1" xmlns="http://www.w3.org/2000/svg" xmlns:xlink="http://www.w3.org/1999/xlink" width="1920" height="1080" viewBox="0 0 1920 1080"><defs><style>.e6095efd-99a1-4b0d-a421-b7057e78f2f0{fill:none;}.a64a9e85-9ab9-43e2-bd37-a53a79583d57{clip-path:url(#a6ba6367-cc2d-4ace-8afd-1cabbca71c61);}.b3f6f9f4-177d-47a4-9653-efb5ddfe07fb{fill:#fff;}.b579a239-fda9-4b61-8283-25b3f6f40cf4{fill:#e00;}.bc25106e-1f30-48cf-a402-25b78d582cd8{fill:#6c6c6c;}</style><clipPath id="a6ba6367-cc2d-4ace-8afd-1cabbca71c61"><rect class="e6095efd-99a1-4b0d-a421-b7057e78f2f0" width="1920" height="1080"/></clipPath></defs><rect width="1920" height="1080"/><g class="a64a9e85-9ab9-43e2-bd37-a53a79583d57"><path class="b3f6f9f4-177d-47a4-9653-efb5ddfe07fb" d="M1754.06787,332.71226a1.40076,1.40076,0,0,1-.70019-.1875l-44.28711-25.56934a1.40049,1.40049,0,0,1,1.40039-2.42578l43.58691,25.166,43.5874-25.166a1.40049,1.40049,0,0,1,1.40039,2.42578l-44.28759,25.56934A1.40082,1.40082,0,0,1,1754.06787,332.71226Z"/><path class="b3f6f9f4-177d-47a4-9653-efb5ddfe07fb" d="M1754.31836,384.34507a1.39994,1.39994,0,0,1-1.3999-1.40039V331.62339a1.3999,1.3999,0,1,1,2.7998,0v51.32129A1.39994,1.39994,0,0,1,1754.31836,384.34507Z"/><path class="b3f6f9f4-177d-47a4-9653-efb5ddfe07fb" d="M1754.06787,384.03355a1.40076,1.40076,0,0,1-.70019-.1875l-44.28711-25.56934a1.40187,1.40187,0,0,1-.69971-1.21289V305.92515a1.40185,1.40185,0,0,1,.69971-1.21289l44.28711-25.56934a1.40114,1.40114,0,0,1,1.40039,0l44.28759,25.56934a1.40185,1.40185,0,0,1,.69971,1.21289v51.13867a1.40187,1.40187,0,0,1-.69971,1.21289l-44.28759,25.56934A1.40082,1.40082,0,0,1,1754.06787,384.03355Zm-42.88721-27.77832,42.88721,24.76171,42.8877-24.76171V306.73374l-42.8877-24.76172-42.88721,24.76172Zm87.17481.80859h0Z"/><polygon points="1844.164 381.519 1844.164 346.988 1814.259 329.723 1784.355 346.988 1784.355 381.519 1814.259 398.784 1844.164 381.519"/><path class="b579a239-fda9-4b61-8283-25b3f6f40cf4" d="M1814.25928,400.18491a1.40082,1.40082,0,0,1-.7002-.1875l-29.90429-17.26562a1.40187,1.40187,0,0,1-.69971-1.21289V346.98765a1.40185,1.40185,0,0,1,.69971-1.21289l29.90429-17.26465a1.40114,1.40114,0,0,1,1.40039,0l29.90479,17.26465a1.40187,1.40187,0,0,1,.6997,1.21289V381.5189a1.40188,1.40188,0,0,1-.6997,1.21289l-29.90479,17.26562A1.40076,1.40076,0,0,1,1814.25928,400.18491Zm-28.5044-19.47461,28.5044,16.458,28.50488-16.458V347.79624l-28.50488-16.457-28.5044,16.457Zm58.40918.8086h0Z"/><path class="b3f6f9f4-177d-47a4-9653-efb5ddfe07fb" d="M1935.85352,610.86069a1.39949,1.39949,0,0,1-.7002-.1875l-44.2876-25.56933a1.40049,1.40049,0,0,1,1.40039-2.42578l43.58741,25.166,43.58691-25.166a1.40049,1.40049,0,1,1,1.40039,2.42578l-44.28711,25.56933A1.39948,1.39948,0,0,1,1935.85352,610.86069Z"/><path class="b3f6f9f4-177d-47a4-9653-efb5ddfe07fb" d="M1935.85352,662.182a1.39949,1.39949,0,0,1-.7002-.1875l-44.2876-25.56933a1.40188,1.40188,0,0,1-.6997-1.21289V584.07358a1.40188,1.40188,0,0,1,.6997-1.21289l44.2876-25.56933a1.39877,1.39877,0,0,1,1.40039,0l44.28711,25.56933a1.40336,1.40336,0,0,1,.7002,1.21289v51.13868a1.40336,1.40336,0,0,1-.7002,1.21289l-44.28711,25.56933A1.39948,1.39948,0,0,1,1935.85352,662.182Zm-42.8877-27.77832,42.8877,24.76172,42.88671-24.76172V584.88218l-42.88671-24.76172-42.8877,24.76172Zm87.1748.8086h0Z"/><path class="b3f6f9f4-177d-47a4-9653-efb5ddfe07fb" d="M1754.06787,742.4564a1.40076,1.40076,0,0,1-.70019-.1875l-44.28711-25.56934a1.40049,1.40049,0,0,1,1.40039-2.42578l43.58691,25.166,43.5874-25.166a1.40049,1.40049,0,0,1,1.40039,2.42578l-44.28759,25.56934A1.40082,1.40082,0,0,1,1754.06787,742.4564Z"/><path class="b3f6f9f4-177d-47a4-9653-efb5ddfe07fb" d="M1754.31836,794.08823a1.39994,1.39994,0,0,1-1.3999-1.40039V741.36753a1.3999,1.3999,0,1,1,2.7998,0v51.32031A1.39994,1.39994,0,0,1,1754.31836,794.08823Z"/><path class="b3f6f9f4-177d-47a4-9653-efb5ddfe07fb" d="M1754.06787,793.77671a1.40076,1.40076,0,0,1-.70019-.1875l-44.28711-25.56934a1.40185,1.40185,0,0,1-.69971-1.21289V715.66929a1.40185,1.40185,0,0,1,.69971-1.21289l44.28711-25.56934a1.40114,1.40114,0,0,1,1.40039,0l44.28759,25.56934a1.40185,1.40185,0,0,1,.69971,1.21289V766.807a1.40185,1.40185,0,0,1-.69971,1.21289l-44.28759,25.56934A1.40082,1.40082,0,0,1,1754.06787,793.77671Zm-42.88721-27.77832,42.88721,24.76172,42.8877-24.76172V716.47788l-42.8877-24.76172-42.88721,24.76172Zm87.17481.80859h0Z"/><path class="b3f6f9f4-177d-47a4-9653-efb5ddfe07fb" d="M1630.834,508.53452a1.40082,1.40082,0,0,1-.70019-.1875l-44.28711-25.56933a1.40049,1.40049,0,0,1,1.40039-2.42578l43.58691,25.166,43.58692-25.166a1.40049,1.40049,0,0,1,1.40039,2.42578L1631.53418,508.347A1.40082,1.40082,0,0,1,1630.834,508.53452Z"/><path class="b3f6f9f4-177d-47a4-9653-efb5ddfe07fb" d="M1631.08447,560.16733a1.4,1.4,0,0,1-1.3999-1.40039V507.44566a1.39991,1.39991,0,1,1,2.79981,0v51.32128A1.4,1.4,0,0,1,1631.08447,560.16733Z"/><path class="b3f6f9f4-177d-47a4-9653-efb5ddfe07fb" d="M1630.834,559.85581a1.40082,1.40082,0,0,1-.70019-.1875L1585.84668,534.099a1.40188,1.40188,0,0,1-.69971-1.2129V481.74741a1.40187,1.40187,0,0,1,.69971-1.21289l44.28711-25.56933a1.40114,1.40114,0,0,1,1.40039,0l44.28711,25.56933a1.40189,1.40189,0,0,1,.69971,1.21289v51.13867a1.4019,1.4019,0,0,1-.69971,1.2129l-44.28711,25.56933A1.40082,1.40082,0,0,1,1630.834,559.85581Zm-42.8872-27.77832,42.8872,24.76172,42.88721-24.76172V482.556L1630.834,457.79429l-42.8872,24.76172Zm87.17431.80859h0Z"/><polygon points="1603.724 552.197 1603.724 511.803 1568.742 491.606 1533.759 511.803 1533.759 552.197 1568.742 572.394 1603.724 552.197"/><path class="b579a239-fda9-4b61-8283-25b3f6f40cf4" d="M1568.7417,573.79429a1.40082,1.40082,0,0,1-.7002-.1875l-34.98242-20.19629a1.40188,1.40188,0,0,1-.6997-1.21289V511.80308a1.40187,1.40187,0,0,1,.6997-1.21289l34.98242-20.19727a1.40114,1.40114,0,0,1,1.40039,0l34.98243,20.19727a1.40187,1.40187,0,0,1,.6997,1.21289v40.39453a1.40188,1.40188,0,0,1-.6997,1.21289l-34.98243,20.19629A1.40076,1.40076,0,0,1,1568.7417,573.79429ZM1535.15918,551.389l33.58252,19.38868,33.58252-19.38868V512.61167L1568.7417,493.222l-33.58252,19.38965Zm68.56494.8086h0Z"/><polygon points="1908.743 244.926 1908.743 204.532 1873.761 184.335 1838.779 204.532 1838.779 244.926 1873.761 265.123 1908.743 244.926"/><path class="b579a239-fda9-4b61-8283-25b3f6f40cf4" d="M1873.76074,266.52378a1.40076,1.40076,0,0,1-.70019-.1875L1838.07812,246.139a1.40187,1.40187,0,0,1-.6997-1.21289V204.53159a1.40188,1.40188,0,0,1,.6997-1.21289l34.98243-20.19726a1.40114,1.40114,0,0,1,1.40039,0l34.98291,20.19726a1.40188,1.40188,0,0,1,.6997,1.21289v40.39453a1.40187,1.40187,0,0,1-.6997,1.21289l-34.98291,20.19727A1.40082,1.40082,0,0,1,1873.76074,266.52378Zm-33.58252-22.40625,33.58252,19.38965,33.583-19.38965V205.34019l-33.583-19.38965-33.58252,19.38965Zm68.56543.80859h0Z"/><polygon points="1908.743 654.524 1908.743 614.129 1873.761 593.932 1838.779 614.129 1838.779 654.524 1873.761 674.721 1908.743 654.524"/><path class="b579a239-fda9-4b61-8283-25b3f6f40cf4" d="M1873.76074,676.12144a1.40076,1.40076,0,0,1-.70019-.1875l-34.98243-20.19727a1.40188,1.40188,0,0,1-.6997-1.21289V614.12925a1.40187,1.40187,0,0,1,.6997-1.21289l34.98243-20.19727a1.40114,1.40114,0,0,1,1.40039,0l34.98291,20.19727a1.40187,1.40187,0,0,1,.6997,1.21289v40.39453a1.40188,1.40188,0,0,1-.6997,1.21289l-34.98291,20.19727A1.40082,1.40082,0,0,1,1873.76074,676.12144Zm-33.58252-22.40625,33.58252,19.38964,33.583-19.38964V614.93784l-33.583-19.38965-33.58252,19.38965Zm68.56543.80859h0Z"/><polygon points="1844.164 791.263 1844.164 756.732 1814.259 739.466 1784.355 756.732 1784.355 791.263 1814.259 808.528 1844.164 791.263"/><path class="b579a239-fda9-4b61-8283-25b3f6f40cf4" d="M1814.25928,809.92808a1.40082,1.40082,0,0,1-.7002-.1875l-29.90429-17.26465a1.40187,1.40187,0,0,1-.69971-1.21289V756.73179a1.40185,1.40185,0,0,1,.69971-1.21289l29.90429-17.26563a1.40114,1.40114,0,0,1,1.40039,0l29.90479,17.26563a1.40187,1.40187,0,0,1,.6997,1.21289V791.263a1.40188,1.40188,0,0,1-.6997,1.21289l-29.90479,17.26465A1.40076,1.40076,0,0,1,1814.25928,809.92808Zm-28.5044-19.47364,28.5044,16.457,28.50488-16.457V757.54038l-28.50488-16.458-28.5044,16.458Zm58.40918.8086h0Z"/><path class="b3f6f9f4-177d-47a4-9653-efb5ddfe07fb" d="M1394.73242,217.56773h-68.76758a1.4004,1.4004,0,0,1,0-2.80079h68.76758a1.4004,1.4004,0,0,1,0,2.80079Z"/><path class="b3f6f9f4-177d-47a4-9653-efb5ddfe07fb" d="M1363.87061,270.42319h-60.689a1.40039,1.40039,0,0,1,0-2.80078h60.689a1.40039,1.40039,0,0,1,0,2.80078Z"/><path class="b3f6f9f4-177d-47a4-9653-efb5ddfe07fb" d="M1345.64307,297.90562h-89.98243a1.4004,1.4004,0,0,1,0-2.80079h89.98243a1.4004,1.4004,0,0,1,0,2.80079Z"/><path class="b3f6f9f4-177d-47a4-9653-efb5ddfe07fb" d="M1392.23291,243.99546h-58.78125a1.40039,1.40039,0,0,1,0-2.80078h58.78125a1.40039,1.40039,0,0,1,0,2.80078Z"/><path class="b3f6f9f4-177d-47a4-9653-efb5ddfe07fb" d="M1317.79541,243.99546h-59.03906a1.40039,1.40039,0,0,1,0-2.80078h59.03906a1.40039,1.40039,0,0,1,0,2.80078Z"/><path class="b3f6f9f4-177d-47a4-9653-efb5ddfe07fb" d="M1343.56006,319.69858H1305.4834a1.40039,1.40039,0,0,1,0-2.80078h38.07666a1.40039,1.40039,0,0,1,0,2.80078Z"/><path class="b3f6f9f4-177d-47a4-9653-efb5ddfe07fb" d="M1449.04883,281.77671l-.7002-.40332-44.98681-25.97363V202.6439l45.687-26.377.70019.40332,44.98682,25.97364v52.75586Zm-42.88721-27.99414,42.88721,24.76172,42.88721-24.76172V204.26108l-42.88721-24.76171-42.88721,24.76171Z"/><path class="b3f6f9f4-177d-47a4-9653-efb5ddfe07fb" d="M1449.04883,230.2396a1.40082,1.40082,0,0,1-.7002-.1875l-44.28711-25.56934a1.40049,1.40049,0,0,1,1.40039-2.42578l43.58692,25.166,43.58691-25.166a1.40049,1.40049,0,0,1,1.40039,2.42578L1449.749,230.0521A1.40076,1.40076,0,0,1,1449.04883,230.2396Z"/><path class="b3f6f9f4-177d-47a4-9653-efb5ddfe07fb" d="M1449.29932,281.87241a1.4,1.4,0,0,1-1.39991-1.40039V229.15073a1.39991,1.39991,0,1,1,2.79981,0V280.472A1.4,1.4,0,0,1,1449.29932,281.87241Z"/><path class="b3f6f9f4-177d-47a4-9653-efb5ddfe07fb" d="M1449.04883,281.56089a1.40082,1.40082,0,0,1-.7002-.1875l-44.28711-25.56934a1.40187,1.40187,0,0,1-.6997-1.21289V203.45249a1.40188,1.40188,0,0,1,.6997-1.21289l44.28711-25.56934a1.40114,1.40114,0,0,1,1.40039,0l44.28711,25.56934a1.40187,1.40187,0,0,1,.69971,1.21289v51.13867a1.40185,1.40185,0,0,1-.69971,1.21289L1449.749,281.37339A1.40076,1.40076,0,0,1,1449.04883,281.56089Zm-42.88721-27.77832,42.88721,24.76172,42.88721-24.76172V204.26108l-42.88721-24.76171-42.88721,24.76171Zm87.17432.80859h0Z"/><polygon class="bc25106e-1f30-48cf-a402-25b78d582cd8" points="1428.909 329.659 1428.909 289.264 1393.926 269.067 1358.944 289.264 1358.944 329.659 1393.926 349.856 1428.909 329.659"/><path class="b3f6f9f4-177d-47a4-9653-efb5ddfe07fb" d="M1393.92627,351.2562a1.40082,1.40082,0,0,1-.7002-.1875l-34.98242-20.19726a1.40188,1.40188,0,0,1-.6997-1.21289V289.264a1.40188,1.40188,0,0,1,.6997-1.21289l34.98242-20.19629a1.40114,1.40114,0,0,1,1.40039,0l34.98243,20.19629a1.40188,1.40188,0,0,1,.6997,1.21289v40.39454a1.40188,1.40188,0,0,1-.6997,1.21289l-34.98243,20.19726A1.40076,1.40076,0,0,1,1393.92627,351.2562ZM1360.34375,328.85l33.58252,19.38965L1427.50879,328.85V290.07261l-33.58252-19.38867-33.58252,19.38867Zm68.56494.8086h0Z"/><path class="b3f6f9f4-177d-47a4-9653-efb5ddfe07fb" d="M1393.92627,310.71812a1.40082,1.40082,0,0,1-.7002-.1875l-34.98242-20.19727a1.40049,1.40049,0,0,1,1.40039-2.42578l34.28223,19.79394,34.28223-19.79394a1.40049,1.40049,0,0,1,1.40039,2.42578l-34.98243,20.19727A1.40076,1.40076,0,0,1,1393.92627,310.71812Z"/><path class="b3f6f9f4-177d-47a4-9653-efb5ddfe07fb" d="M1394.124,351.5023a1.4,1.4,0,0,1-1.3999-1.40039V309.56382a1.39991,1.39991,0,1,1,2.79981,0v40.53809A1.4,1.4,0,0,1,1394.124,351.5023Z"/><polygon points="1539.145 279.046 1539.145 244.516 1509.24 227.25 1479.336 244.516 1479.336 279.046 1509.24 296.312 1539.145 279.046"/><path class="b579a239-fda9-4b61-8283-25b3f6f40cf4" d="M1509.24023,297.71226a1.40082,1.40082,0,0,1-.70019-.1875l-29.90479-17.26563a1.40187,1.40187,0,0,1-.6997-1.21289V244.516a1.40187,1.40187,0,0,1,.6997-1.21289L1508.54,226.03745a1.40114,1.40114,0,0,1,1.40039,0l29.90478,17.26563a1.40185,1.40185,0,0,1,.69971,1.21289v34.53027a1.40185,1.40185,0,0,1-.69971,1.21289l-29.90478,17.26563A1.40082,1.40082,0,0,1,1509.24023,297.71226Zm-28.50488-19.47461,28.50488,16.458,28.50489-16.458V245.32456l-28.50489-16.458-28.50488,16.458Zm58.40967.80859h0Z"/><path class="b579a239-fda9-4b61-8283-25b3f6f40cf4" d="M1509.24023,297.92808l-31.30468-18.07325V243.70737l31.30468-18.07324,31.30469,18.07324v36.14746Zm-28.50488-19.69043,28.50488,16.458,28.50489-16.458V245.32456l-28.50489-16.458-28.50488,16.458Z"/><path class="b579a239-fda9-4b61-8283-25b3f6f40cf4" d="M1509.40918,297.92222a1.4,1.4,0,0,1-1.3999-1.40039V261.86851a1.3999,1.3999,0,1,1,2.7998,0v34.65332A1.4,1.4,0,0,1,1509.40918,297.92222Z"/><path class="b579a239-fda9-4b61-8283-25b3f6f40cf4" d="M1509.24023,263.058a1.40082,1.40082,0,0,1-.70019-.1875l-29.90479-17.26563a1.40049,1.40049,0,0,1,1.40039-2.42578l29.20459,16.86231,29.20459-16.86231a1.40049,1.40049,0,0,1,1.40039,2.42578l-29.90478,17.26563A1.40082,1.40082,0,0,1,1509.24023,263.058Z"/><path class="b3f6f9f4-177d-47a4-9653-efb5ddfe07fb" d="M1363.27,595.19273a1.4,1.4,0,0,1-1.3999-1.4004V525.02476a1.3999,1.3999,0,1,1,2.7998,0v68.76757A1.4,1.4,0,0,1,1363.27,595.19273Z"/><path class="b3f6f9f4-177d-47a4-9653-efb5ddfe07fb" d="M1314.03174,514.36558a1.4,1.4,0,0,1-1.3999-1.40039v-51.6543a1.3999,1.3999,0,1,1,2.7998,0v51.6543A1.4,1.4,0,0,1,1314.03174,514.36558Z"/><path class="b3f6f9f4-177d-47a4-9653-efb5ddfe07fb" d="M1314.03174,554.02866a1.39994,1.39994,0,0,1-1.3999-1.40039V526.8021a1.3999,1.3999,0,1,1,2.7998,0v25.82617A1.39994,1.39994,0,0,1,1314.03174,554.02866Z"/><path class="b3f6f9f4-177d-47a4-9653-efb5ddfe07fb" d="M1343.47461,567.14292a1.39994,1.39994,0,0,1-1.3999-1.40039V512.96519a1.3999,1.3999,0,1,1,2.7998,0v52.77734A1.39994,1.39994,0,0,1,1343.47461,567.14292Z"/><path class="b3f6f9f4-177d-47a4-9653-efb5ddfe07fb" d="M1287.52979,536.599a1.4,1.4,0,0,1-1.39991-1.4004V469.16441a1.39991,1.39991,0,1,1,2.79981,0v66.03417A1.4,1.4,0,0,1,1287.52979,536.599Z"/><path class="b3f6f9f4-177d-47a4-9653-efb5ddfe07fb" d="M1264.33154,562.35093a1.4,1.4,0,0,1-1.3999-1.40039V479.96519a1.39991,1.39991,0,1,1,2.79981,0v80.98535A1.4,1.4,0,0,1,1264.33154,562.35093Z"/><path class="b3f6f9f4-177d-47a4-9653-efb5ddfe07fb" d="M1240.001,511.49839a1.4,1.4,0,0,1-1.39991-1.40039V469.31773a1.39991,1.39991,0,1,1,2.79981,0V510.098A1.4,1.4,0,0,1,1240.001,511.49839Z"/><path class="b3f6f9f4-177d-47a4-9653-efb5ddfe07fb" d="M1382.20508,550.94468a1.39994,1.39994,0,0,1-1.3999-1.40039v-36.5791a1.3999,1.3999,0,1,1,2.7998,0v36.5791A1.39994,1.39994,0,0,1,1382.20508,550.94468Z"/><path class="b3f6f9f4-177d-47a4-9653-efb5ddfe07fb" d="M1325.81494,406.06187a1.40076,1.40076,0,0,1-.70019-.1875l-44.2876-25.56934a1.40049,1.40049,0,0,1,1.40039-2.42578l43.5874,25.166,43.58692-25.166a1.40049,1.40049,0,0,1,1.40039,2.42578l-44.28711,25.56934A1.40082,1.40082,0,0,1,1325.81494,406.06187Z"/><path class="b3f6f9f4-177d-47a4-9653-efb5ddfe07fb" d="M1326.06494,457.69468a1.39994,1.39994,0,0,1-1.3999-1.40039V404.973a1.3999,1.3999,0,1,1,2.7998,0v51.32129A1.39994,1.39994,0,0,1,1326.06494,457.69468Z"/><path class="b3f6f9f4-177d-47a4-9653-efb5ddfe07fb" d="M1325.81494,457.38316a1.40076,1.40076,0,0,1-.70019-.1875l-44.2876-25.56934a1.40187,1.40187,0,0,1-.69971-1.21289V379.27476a1.40185,1.40185,0,0,1,.69971-1.21289l44.2876-25.56934a1.40114,1.40114,0,0,1,1.40039,0l44.28711,25.56934a1.40187,1.40187,0,0,1,.6997,1.21289v51.13867a1.40188,1.40188,0,0,1-.6997,1.21289l-44.28711,25.56934A1.40082,1.40082,0,0,1,1325.81494,457.38316Zm-42.88769-27.77833,42.88769,24.76172,42.88721-24.76172V380.08335l-42.88721-24.76172-42.88769,24.76172Zm87.1748.8086h0Z"/><polygon class="bc25106e-1f30-48cf-a402-25b78d582cd8" points="1394.592 495.012 1394.592 460.481 1364.687 443.216 1334.783 460.481 1334.783 495.012 1364.687 512.278 1394.592 495.012"/><path class="b3f6f9f4-177d-47a4-9653-efb5ddfe07fb" d="M1364.6875,513.67808a1.40082,1.40082,0,0,1-.7002-.1875L1334.08252,496.225a1.40185,1.40185,0,0,1-.69971-1.21289V460.48179a1.40185,1.40185,0,0,1,.69971-1.21289l29.90478-17.26563a1.40116,1.40116,0,0,1,1.4004,0L1395.292,459.2689a1.40185,1.40185,0,0,1,.69971,1.21289v34.53027a1.40185,1.40185,0,0,1-.69971,1.21289l-29.90429,17.26563A1.40082,1.40082,0,0,1,1364.6875,513.67808Zm-28.50488-19.47461,28.50488,16.458,28.50439-16.458V461.29038l-28.50439-16.458-28.50488,16.458Zm58.40918.80859h0Z"/><path class="b3f6f9f4-177d-47a4-9653-efb5ddfe07fb" d="M1364.6875,479.02378a1.40082,1.40082,0,0,1-.7002-.1875l-29.90478-17.26562a1.4005,1.4005,0,0,1,1.40039-2.42579l29.20459,16.86231,29.2041-16.86231a1.4005,1.4005,0,0,1,1.40039,2.42579l-29.90429,17.26562A1.40082,1.40082,0,0,1,1364.6875,479.02378Z"/><path class="b3f6f9f4-177d-47a4-9653-efb5ddfe07fb" d="M1364.85645,513.888a1.4,1.4,0,0,1-1.39991-1.40039V477.83433a1.39991,1.39991,0,1,1,2.79981,0v34.65332A1.4,1.4,0,0,1,1364.85645,513.888Z"/><polygon points="1298.705 449.725 1298.705 409.331 1263.723 389.133 1228.74 409.331 1228.74 449.725 1263.723 469.922 1298.705 449.725"/><path class="b579a239-fda9-4b61-8283-25b3f6f40cf4" d="M1263.72266,471.32261a1.40082,1.40082,0,0,1-.7002-.1875L1228.04,450.93784a1.40185,1.40185,0,0,1-.69971-1.21289V409.33042a1.40187,1.40187,0,0,1,.69971-1.21289l34.98242-20.19727a1.40114,1.40114,0,0,1,1.40039,0l34.98242,20.19727a1.40187,1.40187,0,0,1,.69971,1.21289V449.725a1.40185,1.40185,0,0,1-.69971,1.21289l-34.98242,20.19727A1.40079,1.40079,0,0,1,1263.72266,471.32261Zm-33.58252-22.40625,33.58252,19.38965,33.58252-19.38965V410.139l-33.58252-19.38964L1230.14014,410.139Zm68.56494.80859h0Z"/><path class="b579a239-fda9-4b61-8283-25b3f6f40cf4" d="M1263.72266,430.78355a1.40082,1.40082,0,0,1-.7002-.1875L1228.04,410.39878a1.40049,1.40049,0,0,1,1.40039-2.42578l34.28223,19.79394,34.28222-19.79394a1.40049,1.40049,0,0,1,1.40039,2.42578l-34.98242,20.19727A1.40079,1.40079,0,0,1,1263.72266,430.78355Z"/><path class="b579a239-fda9-4b61-8283-25b3f6f40cf4" d="M1263.92041,471.5687a1.39994,1.39994,0,0,1-1.3999-1.40039V429.62925a1.3999,1.3999,0,1,1,2.7998,0v40.53906A1.39994,1.39994,0,0,1,1263.92041,471.5687Z"/><path class="b3f6f9f4-177d-47a4-9653-efb5ddfe07fb" d="M1699.75146,320.04038h-68.76757a1.40039,1.40039,0,0,1,0-2.80078h68.76757a1.40039,1.40039,0,0,1,0,2.80078Z"/><path class="b3f6f9f4-177d-47a4-9653-efb5ddfe07fb" d="M1668.88965,372.89487h-60.68848a1.40039,1.40039,0,0,1,0-2.80078h60.68848a1.40039,1.40039,0,0,1,0,2.80078Z"/><path class="b3f6f9f4-177d-47a4-9653-efb5ddfe07fb" d="M1650.66211,400.37827h-89.98242a1.40039,1.40039,0,0,1,0-2.80078h89.98242a1.40039,1.40039,0,0,1,0,2.80078Z"/><path class="b3f6f9f4-177d-47a4-9653-efb5ddfe07fb" d="M1697.252,346.46812H1638.4707a1.4004,1.4004,0,0,1,0-2.80079H1697.252a1.4004,1.4004,0,0,1,0,2.80079Z"/><path class="b3f6f9f4-177d-47a4-9653-efb5ddfe07fb" d="M1622.81494,346.46812h-59.03955a1.4004,1.4004,0,0,1,0-2.80079h59.03955a1.4004,1.4004,0,0,1,0,2.80079Z"/><path class="b3f6f9f4-177d-47a4-9653-efb5ddfe07fb" d="M1648.5791,422.17124h-38.07666a1.40039,1.40039,0,0,1,0-2.80078h38.07666a1.40039,1.40039,0,0,1,0,2.80078Z"/><polygon class="bc25106e-1f30-48cf-a402-25b78d582cd8" points="1733.928 432.131 1733.928 391.737 1698.945 371.54 1663.963 391.737 1663.963 432.131 1698.945 452.328 1733.928 432.131"/><path class="b3f6f9f4-177d-47a4-9653-efb5ddfe07fb" d="M1698.94531,453.72886a1.40076,1.40076,0,0,1-.70019-.1875l-34.98242-20.19727a1.40185,1.40185,0,0,1-.69971-1.21289V391.73667a1.40187,1.40187,0,0,1,.69971-1.21289l34.98242-20.19727a1.40114,1.40114,0,0,1,1.40039,0l34.98242,20.19727a1.40187,1.40187,0,0,1,.69971,1.21289V432.1312a1.40185,1.40185,0,0,1-.69971,1.21289l-34.98242,20.19727A1.40082,1.40082,0,0,1,1698.94531,453.72886Zm-33.58252-22.40625,33.58252,19.38965,33.58252-19.38965V392.54526l-33.58252-19.38964-33.58252,19.38964Zm68.56494.80859h0Z"/><path class="b3f6f9f4-177d-47a4-9653-efb5ddfe07fb" d="M1698.94531,413.1898a1.40076,1.40076,0,0,1-.70019-.1875L1663.2627,392.806a1.40049,1.40049,0,0,1,1.40039-2.42578l34.28222,19.793,34.28223-19.793a1.40049,1.40049,0,0,1,1.40039,2.42578l-34.98242,20.19629A1.40082,1.40082,0,0,1,1698.94531,413.1898Z"/><path class="b3f6f9f4-177d-47a4-9653-efb5ddfe07fb" d="M1699.14307,453.975a1.4,1.4,0,0,1-1.39991-1.40039V412.0355a1.39991,1.39991,0,1,1,2.79981,0v40.53906A1.4,1.4,0,0,1,1699.14307,453.975Z"/><path class="b3f6f9f4-177d-47a4-9653-efb5ddfe07fb" d="M1668.28955,697.66538a1.39994,1.39994,0,0,1-1.3999-1.40039V627.49741a1.3999,1.3999,0,1,1,2.7998,0V696.265A1.39994,1.39994,0,0,1,1668.28955,697.66538Z"/><path class="b3f6f9f4-177d-47a4-9653-efb5ddfe07fb" d="M1619.05127,616.83726a1.4,1.4,0,0,1-1.3999-1.40039v-51.6543a1.3999,1.3999,0,1,1,2.7998,0v51.6543A1.4,1.4,0,0,1,1619.05127,616.83726Z"/><path class="b3f6f9f4-177d-47a4-9653-efb5ddfe07fb" d="M1619.05127,656.50132a1.39994,1.39994,0,0,1-1.3999-1.40039V629.27378a1.3999,1.3999,0,1,1,2.7998,0v25.82715A1.39994,1.39994,0,0,1,1619.05127,656.50132Z"/><path class="b3f6f9f4-177d-47a4-9653-efb5ddfe07fb" d="M1648.49365,669.61558a1.4,1.4,0,0,1-1.3999-1.40039V615.43687a1.3999,1.3999,0,1,1,2.7998,0v52.77832A1.4,1.4,0,0,1,1648.49365,669.61558Z"/><path class="b3f6f9f4-177d-47a4-9653-efb5ddfe07fb" d="M1592.54932,639.07163a1.4,1.4,0,0,1-1.39991-1.40039V571.63706a1.39991,1.39991,0,1,1,2.79981,0v66.03418A1.4,1.4,0,0,1,1592.54932,639.07163Z"/><path class="b3f6f9f4-177d-47a4-9653-efb5ddfe07fb" d="M1569.35107,664.82358a1.4,1.4,0,0,1-1.3999-1.40039V582.43784a1.39991,1.39991,0,1,1,2.79981,0v80.98535A1.4,1.4,0,0,1,1569.35107,664.82358Z"/><path class="b3f6f9f4-177d-47a4-9653-efb5ddfe07fb" d="M1545.02051,613.97105a1.4,1.4,0,0,1-1.3999-1.40039V571.79038a1.3999,1.3999,0,1,1,2.7998,0v40.78028A1.4,1.4,0,0,1,1545.02051,613.97105Z"/><path class="b3f6f9f4-177d-47a4-9653-efb5ddfe07fb" d="M1687.22461,653.41733a1.39994,1.39994,0,0,1-1.3999-1.40039V615.43687a1.3999,1.3999,0,1,1,2.7998,0v36.58007A1.39994,1.39994,0,0,1,1687.22461,653.41733Z"/><polygon class="bc25106e-1f30-48cf-a402-25b78d582cd8" points="1699.611 597.485 1699.611 562.954 1669.707 545.688 1639.802 562.954 1639.802 597.485 1669.707 614.75 1699.611 597.485"/><path class="b3f6f9f4-177d-47a4-9653-efb5ddfe07fb" d="M1669.70654,616.15073a1.40076,1.40076,0,0,1-.70019-.1875l-29.90479-17.26562a1.40188,1.40188,0,0,1-.6997-1.21289V562.95347a1.40187,1.40187,0,0,1,.6997-1.21289l29.90479-17.26465a1.40114,1.40114,0,0,1,1.40039,0l29.90478,17.26465a1.40185,1.40185,0,0,1,.69971,1.21289v34.53125a1.40187,1.40187,0,0,1-.69971,1.21289l-29.90478,17.26562A1.40082,1.40082,0,0,1,1669.70654,616.15073Zm-28.50488-19.47461,28.50488,16.458,28.50489-16.458V563.76206l-28.50489-16.457-28.50488,16.457Zm58.40967.8086h0Z"/><path class="b3f6f9f4-177d-47a4-9653-efb5ddfe07fb" d="M1669.70654,581.49644a1.40076,1.40076,0,0,1-.70019-.1875l-29.90479-17.26563a1.40049,1.40049,0,0,1,1.40039-2.42578l29.20459,16.8623,29.20459-16.8623a1.40049,1.40049,0,0,1,1.40039,2.42578l-29.90478,17.26563A1.40082,1.40082,0,0,1,1669.70654,581.49644Z"/><path class="b3f6f9f4-177d-47a4-9653-efb5ddfe07fb" d="M1669.87549,616.36069a1.39994,1.39994,0,0,1-1.3999-1.40039V580.306a1.3999,1.3999,0,1,1,2.7998,0V614.9603A1.39994,1.39994,0,0,1,1669.87549,616.36069Z"/><path class="b579a239-fda9-4b61-8283-25b3f6f40cf4" d="M1568.7417,533.2562a1.40082,1.40082,0,0,1-.7002-.1875l-34.98242-20.19726a1.40049,1.40049,0,0,1,1.40039-2.42578l34.28223,19.79394,34.28223-19.79394a1.40049,1.40049,0,0,1,1.40039,2.42578l-34.98243,20.19726A1.40076,1.40076,0,0,1,1568.7417,533.2562Z"/><path class="b579a239-fda9-4b61-8283-25b3f6f40cf4" d="M1568.93945,574.04038a1.4,1.4,0,0,1-1.3999-1.40039V532.10191a1.39991,1.39991,0,1,1,2.79981,0V572.64A1.4,1.4,0,0,1,1568.93945,574.04038Z"/><path class="b3f6f9f4-177d-47a4-9653-efb5ddfe07fb" d="M1973.90918,65.62437h-60.689a1.4004,1.4004,0,0,1,0-2.80079h60.689a1.4004,1.4004,0,0,1,0,2.80079Z"/><path class="b3f6f9f4-177d-47a4-9653-efb5ddfe07fb" d="M1955.68164,93.10679h-89.98242a1.40039,1.40039,0,0,1,0-2.80078h89.98242a1.40039,1.40039,0,1,1,0,2.80078Z"/><path class="b3f6f9f4-177d-47a4-9653-efb5ddfe07fb" d="M1927.834,39.19663h-59.03955a1.40039,1.40039,0,0,1,0-2.80078H1927.834a1.40039,1.40039,0,1,1,0,2.80078Z"/><path class="b3f6f9f4-177d-47a4-9653-efb5ddfe07fb" d="M1953.59863,114.89976h-38.07715a1.40039,1.40039,0,0,1,0-2.80078h38.07715a1.40039,1.40039,0,1,1,0,2.80078Z"/><path class="b3f6f9f4-177d-47a4-9653-efb5ddfe07fb" d="M1897.56836,331.80015a1.4,1.4,0,0,1-1.3999-1.40039V264.36655a1.3999,1.3999,0,1,1,2.7998,0v66.03321A1.4,1.4,0,0,1,1897.56836,331.80015Z"/><path class="b3f6f9f4-177d-47a4-9653-efb5ddfe07fb" d="M1874.37012,357.5521a1.4,1.4,0,0,1-1.39991-1.40039V275.16733a1.39991,1.39991,0,1,1,2.79981,0v80.98438A1.4,1.4,0,0,1,1874.37012,357.5521Z"/><path class="b3f6f9f4-177d-47a4-9653-efb5ddfe07fb" d="M1850.03955,306.69956a1.39994,1.39994,0,0,1-1.3999-1.40039V264.5189a1.3999,1.3999,0,1,1,2.7998,0v40.78027A1.39994,1.39994,0,0,1,1850.03955,306.69956Z"/><path class="b3f6f9f4-177d-47a4-9653-efb5ddfe07fb" d="M1935.85352,201.263a1.39949,1.39949,0,0,1-.7002-.1875l-44.2876-25.56934a1.40049,1.40049,0,0,1,1.40039-2.42578l43.58741,25.166,43.58691-25.166a1.40049,1.40049,0,1,1,1.40039,2.42578l-44.28711,25.56934A1.39948,1.39948,0,0,1,1935.85352,201.263Z"/><path class="b3f6f9f4-177d-47a4-9653-efb5ddfe07fb" d="M1935.85352,252.58433a1.39949,1.39949,0,0,1-.7002-.1875l-44.2876-25.56934a1.40188,1.40188,0,0,1-.6997-1.21289V174.47593a1.40187,1.40187,0,0,1,.6997-1.21289l44.2876-25.56934a1.39879,1.39879,0,0,1,1.40039,0l44.28711,25.56934a1.40334,1.40334,0,0,1,.7002,1.21289V225.6146a1.40336,1.40336,0,0,1-.7002,1.21289l-44.28711,25.56934A1.39948,1.39948,0,0,1,1935.85352,252.58433Zm-42.8877-27.77832,42.8877,24.76172,42.88671-24.76172V175.28452l-42.88671-24.76172-42.8877,24.76172Zm87.1748.80859h0Z"/><path class="b579a239-fda9-4b61-8283-25b3f6f40cf4" d="M1873.76074,225.98472a1.40076,1.40076,0,0,1-.70019-.1875L1838.07812,205.6a1.40049,1.40049,0,0,1,1.4004-2.42578l34.28222,19.79395,34.28272-19.79395a1.40049,1.40049,0,0,1,1.40039,2.42578l-34.98291,20.19727A1.40082,1.40082,0,0,1,1873.76074,225.98472Z"/><path class="b579a239-fda9-4b61-8283-25b3f6f40cf4" d="M1873.9585,266.76987a1.4,1.4,0,0,1-1.39991-1.40039V224.83042a1.39991,1.39991,0,1,1,2.79981,0v40.53906A1.4,1.4,0,0,1,1873.9585,266.76987Z"/><path class="b3f6f9f4-177d-47a4-9653-efb5ddfe07fb" d="M1973.90918,475.222h-60.689a1.40039,1.40039,0,0,1,0-2.80078h60.689a1.40039,1.40039,0,0,1,0,2.80078Z"/><path class="b3f6f9f4-177d-47a4-9653-efb5ddfe07fb" d="M1955.68164,502.70444h-89.98242a1.40039,1.40039,0,0,1,0-2.80078h89.98242a1.40039,1.40039,0,1,1,0,2.80078Z"/><path class="b3f6f9f4-177d-47a4-9653-efb5ddfe07fb" d="M1927.834,448.79429h-59.03955a1.40039,1.40039,0,0,1,0-2.80078H1927.834a1.40039,1.40039,0,1,1,0,2.80078Z"/><path class="b3f6f9f4-177d-47a4-9653-efb5ddfe07fb" d="M1953.59863,524.49741h-38.07715a1.40039,1.40039,0,0,1,0-2.80078h38.07715a1.40039,1.40039,0,1,1,0,2.80078Z"/><path class="b3f6f9f4-177d-47a4-9653-efb5ddfe07fb" d="M1897.56836,741.3978a1.39994,1.39994,0,0,1-1.3999-1.40039V673.96323a1.3999,1.3999,0,1,1,2.7998,0v66.03418A1.39994,1.39994,0,0,1,1897.56836,741.3978Z"/><path class="b3f6f9f4-177d-47a4-9653-efb5ddfe07fb" d="M1874.37012,767.14976a1.4,1.4,0,0,1-1.39991-1.40039V684.764a1.39991,1.39991,0,1,1,2.79981,0v80.98536A1.4,1.4,0,0,1,1874.37012,767.14976Z"/><path class="b3f6f9f4-177d-47a4-9653-efb5ddfe07fb" d="M1850.03955,716.29722a1.4,1.4,0,0,1-1.3999-1.40039V674.11655a1.3999,1.3999,0,1,1,2.7998,0v40.78028A1.4,1.4,0,0,1,1850.03955,716.29722Z"/><path class="b579a239-fda9-4b61-8283-25b3f6f40cf4" d="M1873.76074,635.58237a1.40076,1.40076,0,0,1-.70019-.1875l-34.98243-20.19726a1.40049,1.40049,0,0,1,1.4004-2.42578l34.28222,19.79394,34.28272-19.79394a1.40049,1.40049,0,0,1,1.40039,2.42578l-34.98291,20.19726A1.40082,1.40082,0,0,1,1873.76074,635.58237Z"/><path class="b579a239-fda9-4b61-8283-25b3f6f40cf4" d="M1873.9585,676.36753a1.4,1.4,0,0,1-1.39991-1.40039V634.42808a1.39991,1.39991,0,1,1,2.79981,0v40.53906A1.4,1.4,0,0,1,1873.9585,676.36753Z"/><path class="b3f6f9f4-177d-47a4-9653-efb5ddfe07fb" d="M1699.75146,729.78452h-68.76757a1.40039,1.40039,0,0,1,0-2.80078h68.76757a1.40039,1.40039,0,0,1,0,2.80078Z"/><path class="b3f6f9f4-177d-47a4-9653-efb5ddfe07fb" d="M1668.88965,782.639h-60.68848a1.40039,1.40039,0,0,1,0-2.80078h60.68848a1.40039,1.40039,0,0,1,0,2.80078Z"/><path class="b3f6f9f4-177d-47a4-9653-efb5ddfe07fb" d="M1650.66211,810.12241h-89.98242a1.40039,1.40039,0,0,1,0-2.80078h89.98242a1.40039,1.40039,0,0,1,0,2.80078Z"/><path class="b3f6f9f4-177d-47a4-9653-efb5ddfe07fb" d="M1697.252,756.21128H1638.4707a1.40039,1.40039,0,0,1,0-2.80078H1697.252a1.40039,1.40039,0,0,1,0,2.80078Z"/><path class="b3f6f9f4-177d-47a4-9653-efb5ddfe07fb" d="M1622.81494,756.21128h-59.03955a1.40039,1.40039,0,0,1,0-2.80078h59.03955a1.40039,1.40039,0,0,1,0,2.80078Z"/><path class="b3f6f9f4-177d-47a4-9653-efb5ddfe07fb" d="M1648.5791,831.91538h-38.07666a1.40039,1.40039,0,0,1,0-2.80078h38.07666a1.40039,1.40039,0,0,1,0,2.80078Z"/><polygon class="bc25106e-1f30-48cf-a402-25b78d582cd8" points="1733.928 841.875 1733.928 801.481 1698.945 781.284 1663.963 801.481 1663.963 841.875 1698.945 862.072 1733.928 841.875"/><path class="b3f6f9f4-177d-47a4-9653-efb5ddfe07fb" d="M1698.94531,863.472a1.40076,1.40076,0,0,1-.70019-.1875l-34.98242-20.19629a1.40185,1.40185,0,0,1-.69971-1.21289V801.48081a1.40187,1.40187,0,0,1,.69971-1.21289l34.98242-20.19726a1.40114,1.40114,0,0,1,1.40039,0l34.98242,20.19726a1.40187,1.40187,0,0,1,.69971,1.21289v40.39453a1.40185,1.40185,0,0,1-.69971,1.21289l-34.98242,20.19629A1.40082,1.40082,0,0,1,1698.94531,863.472Zm-33.58252-22.40527,33.58252,19.38867,33.58252-19.38867V802.28941l-33.58252-19.38965-33.58252,19.38965Zm68.56494.80859h0Z"/><path class="b3f6f9f4-177d-47a4-9653-efb5ddfe07fb" d="M1698.94531,822.93394a1.40076,1.40076,0,0,1-.70019-.1875l-34.98242-20.19727a1.40049,1.40049,0,0,1,1.40039-2.42578l34.28222,19.79394,34.28223-19.79394a1.40049,1.40049,0,0,1,1.40039,2.42578l-34.98242,20.19727A1.40082,1.40082,0,0,1,1698.94531,822.93394Z"/><path class="b3f6f9f4-177d-47a4-9653-efb5ddfe07fb" d="M1699.14307,863.71812a1.4,1.4,0,0,1-1.39991-1.40039V821.77964a1.39991,1.39991,0,1,1,2.79981,0v40.53809A1.4,1.4,0,0,1,1699.14307,863.71812Z"/><path class="b579a239-fda9-4b61-8283-25b3f6f40cf4" d="M1814.25928,810.1439l-31.3042-18.07227V755.92319l31.3042-18.07324,31.30468,18.07324v36.14844Zm-28.5044-19.68946,28.5044,16.457,28.50488-16.457V757.54038l-28.50488-16.458-28.5044,16.458Z"/><path class="b579a239-fda9-4b61-8283-25b3f6f40cf4" d="M1814.42871,810.139a1.39994,1.39994,0,0,1-1.3999-1.40039V774.08433a1.3999,1.3999,0,1,1,2.7998,0v34.65429A1.39994,1.39994,0,0,1,1814.42871,810.139Z"/><path class="b579a239-fda9-4b61-8283-25b3f6f40cf4" d="M1814.25928,775.27476a1.40082,1.40082,0,0,1-.7002-.1875l-29.90429-17.26563a1.40049,1.40049,0,0,1,1.40039-2.42578l29.2041,16.86231,29.20459-16.86231a1.40049,1.40049,0,0,1,1.40039,2.42578l-29.90479,17.26563A1.40076,1.40076,0,0,1,1814.25928,775.27476Z"/><path class="b3f6f9f4-177d-47a4-9653-efb5ddfe07fb" d="M1668.28955,1107.40952a1.39994,1.39994,0,0,1-1.3999-1.40039v-68.76758a1.3999,1.3999,0,1,1,2.7998,0v68.76758A1.39994,1.39994,0,0,1,1668.28955,1107.40952Z"/><path class="b3f6f9f4-177d-47a4-9653-efb5ddfe07fb" d="M1619.05127,1026.5814a1.4,1.4,0,0,1-1.3999-1.40039v-51.6543a1.3999,1.3999,0,1,1,2.7998,0v51.6543A1.4,1.4,0,0,1,1619.05127,1026.5814Z"/><path class="b3f6f9f4-177d-47a4-9653-efb5ddfe07fb" d="M1619.05127,1066.24546a1.39994,1.39994,0,0,1-1.3999-1.40039v-25.82715a1.3999,1.3999,0,1,1,2.7998,0v25.82715A1.39994,1.39994,0,0,1,1619.05127,1066.24546Z"/><path class="b3f6f9f4-177d-47a4-9653-efb5ddfe07fb" d="M1648.49365,1079.35972a1.4,1.4,0,0,1-1.3999-1.40039V1025.181a1.3999,1.3999,0,1,1,2.7998,0v52.77832A1.4,1.4,0,0,1,1648.49365,1079.35972Z"/><path class="b3f6f9f4-177d-47a4-9653-efb5ddfe07fb" d="M1592.54932,1048.81577a1.4,1.4,0,0,1-1.39991-1.40039V981.3812a1.39991,1.39991,0,1,1,2.79981,0v66.03418A1.4,1.4,0,0,1,1592.54932,1048.81577Z"/><path class="b3f6f9f4-177d-47a4-9653-efb5ddfe07fb" d="M1569.35107,1074.56773a1.4,1.4,0,0,1-1.3999-1.4004V992.182a1.39991,1.39991,0,1,1,2.79981,0v80.98535A1.4,1.4,0,0,1,1569.35107,1074.56773Z"/><path class="b3f6f9f4-177d-47a4-9653-efb5ddfe07fb" d="M1545.02051,1023.71421a1.39994,1.39994,0,0,1-1.3999-1.40039V981.53355a1.3999,1.3999,0,1,1,2.7998,0v40.78027A1.39994,1.39994,0,0,1,1545.02051,1023.71421Z"/><path class="b3f6f9f4-177d-47a4-9653-efb5ddfe07fb" d="M1687.22461,1063.16148a1.4,1.4,0,0,1-1.3999-1.4004V1025.181a1.3999,1.3999,0,1,1,2.7998,0v36.58007A1.4,1.4,0,0,1,1687.22461,1063.16148Z"/><path class="b3f6f9f4-177d-47a4-9653-efb5ddfe07fb" d="M1630.834,918.27866a1.40082,1.40082,0,0,1-.70019-.1875l-44.28711-25.56933a1.40049,1.40049,0,0,1,1.40039-2.42578l43.58691,25.166,43.58692-25.166a1.40049,1.40049,0,0,1,1.40039,2.42578l-44.28711,25.56933A1.40082,1.40082,0,0,1,1630.834,918.27866Z"/><path class="b3f6f9f4-177d-47a4-9653-efb5ddfe07fb" d="M1631.08447,969.9105a1.4,1.4,0,0,1-1.3999-1.40039V917.1898a1.39991,1.39991,0,1,1,2.79981,0v51.32031A1.4,1.4,0,0,1,1631.08447,969.9105Z"/><path class="b3f6f9f4-177d-47a4-9653-efb5ddfe07fb" d="M1630.834,969.599a1.40082,1.40082,0,0,1-.70019-.1875l-44.28711-25.56836a1.40187,1.40187,0,0,1-.69971-1.21289V891.49155a1.40187,1.40187,0,0,1,.69971-1.21289l44.28711-25.56933a1.40114,1.40114,0,0,1,1.40039,0l44.28711,25.56933a1.40189,1.40189,0,0,1,.69971,1.21289v51.13868a1.40189,1.40189,0,0,1-.69971,1.21289l-44.28711,25.56836A1.40082,1.40082,0,0,1,1630.834,969.599Zm-42.8872-27.77735,42.8872,24.76074,42.88721-24.76074V892.30015L1630.834,867.53843l-42.8872,24.76172Zm87.17431.8086h0Z"/><polygon class="bc25106e-1f30-48cf-a402-25b78d582cd8" points="1699.611 1007.228 1699.611 972.698 1669.707 955.432 1639.802 972.698 1639.802 1007.228 1669.707 1024.494 1699.611 1007.228"/><path class="b3f6f9f4-177d-47a4-9653-efb5ddfe07fb" d="M1669.70654,1025.8939a1.40076,1.40076,0,0,1-.70019-.1875l-29.90479-17.26465a1.40188,1.40188,0,0,1-.6997-1.21289V972.69761a1.40187,1.40187,0,0,1,.6997-1.21289l29.90479-17.26563a1.40114,1.40114,0,0,1,1.40039,0l29.90478,17.26563a1.40185,1.40185,0,0,1,.69971,1.21289v34.53125a1.40187,1.40187,0,0,1-.69971,1.21289l-29.90478,17.26465A1.40082,1.40082,0,0,1,1669.70654,1025.8939Zm-28.50488-19.47364,28.50488,16.457,28.50489-16.457V973.5062l-28.50489-16.458-28.50488,16.458Zm58.40967.8086h0Z"/><path class="b3f6f9f4-177d-47a4-9653-efb5ddfe07fb" d="M1669.70654,991.24058a1.40076,1.40076,0,0,1-.70019-.1875l-29.90479-17.26563a1.40049,1.40049,0,0,1,1.40039-2.42578l29.20459,16.86231,29.20459-16.86231a1.40049,1.40049,0,0,1,1.40039,2.42578l-29.90478,17.26563A1.40082,1.40082,0,0,1,1669.70654,991.24058Z"/><path class="b3f6f9f4-177d-47a4-9653-efb5ddfe07fb" d="M1669.87549,1026.10483a1.39994,1.39994,0,0,1-1.3999-1.40039V990.05015a1.3999,1.3999,0,1,1,2.7998,0v34.65429A1.39994,1.39994,0,0,1,1669.87549,1026.10483Z"/><path class="b579a239-fda9-4b61-8283-25b3f6f40cf4" d="M1568.7417,943.00034a1.40082,1.40082,0,0,1-.7002-.1875l-34.98242-20.19726a1.40049,1.40049,0,0,1,1.40039-2.42578l34.28223,19.79394,34.28223-19.79394a1.40049,1.40049,0,0,1,1.40039,2.42578l-34.98243,20.19726A1.40076,1.40076,0,0,1,1568.7417,943.00034Z"/><path class="b579a239-fda9-4b61-8283-25b3f6f40cf4" d="M1568.93945,983.78452a1.4,1.4,0,0,1-1.3999-1.40039V941.84605a1.39991,1.39991,0,1,1,2.79981,0v40.53808A1.4,1.4,0,0,1,1568.93945,983.78452Z"/><path class="b579a239-fda9-4b61-8283-25b3f6f40cf4" d="M1568.7417,983.53843a1.40082,1.40082,0,0,1-.7002-.1875l-34.98242-20.19727a1.40187,1.40187,0,0,1-.6997-1.21289V921.54624a1.40188,1.40188,0,0,1,.6997-1.21289l34.98242-20.19629a1.40114,1.40114,0,0,1,1.40039,0l34.98243,20.19629a1.40188,1.40188,0,0,1,.6997,1.21289v40.39453a1.40187,1.40187,0,0,1-.6997,1.21289l-34.98243,20.19727A1.40076,1.40076,0,0,1,1568.7417,983.53843Zm-33.58252-22.40625,33.58252,19.38965,33.58252-19.38965V922.35483l-33.58252-19.38867-33.58252,19.38867Zm68.56494.80859h0Z"/><path class="b3f6f9f4-177d-47a4-9653-efb5ddfe07fb" d="M1973.90918,885.11167h-60.689a1.40039,1.40039,0,0,1,0-2.80078h60.689a1.40039,1.40039,0,0,1,0,2.80078Z"/><path class="b3f6f9f4-177d-47a4-9653-efb5ddfe07fb" d="M1955.68164,912.59409h-89.98242a1.40039,1.40039,0,0,1,0-2.80078h89.98242a1.40039,1.40039,0,0,1,0,2.80078Z"/><path class="b3f6f9f4-177d-47a4-9653-efb5ddfe07fb" d="M1927.834,858.68394h-59.03955a1.40039,1.40039,0,0,1,0-2.80078H1927.834a1.40039,1.40039,0,1,1,0,2.80078Z"/><path class="b3f6f9f4-177d-47a4-9653-efb5ddfe07fb" d="M1953.59863,934.38706h-38.07715a1.40039,1.40039,0,0,1,0-2.80078h38.07715a1.40039,1.40039,0,0,1,0,2.80078Z"/><path class="b3f6f9f4-177d-47a4-9653-efb5ddfe07fb" d="M1935.85352,1020.75034a1.39949,1.39949,0,0,1-.7002-.1875l-44.2876-25.56836a1.40049,1.40049,0,0,1,1.40039-2.42578l43.58741,25.165,43.58691-25.165a1.40049,1.40049,0,1,1,1.40039,2.42578l-44.28711,25.56836A1.39948,1.39948,0,0,1,1935.85352,1020.75034Z"/><path class="b3f6f9f4-177d-47a4-9653-efb5ddfe07fb" d="M1935.85352,1072.07163a1.39949,1.39949,0,0,1-.7002-.1875l-44.2876-25.56933a1.40188,1.40188,0,0,1-.6997-1.21289V993.96323a1.40188,1.40188,0,0,1,.6997-1.21289l44.2876-25.56836a1.39879,1.39879,0,0,1,1.40039,0l44.28711,25.56836a1.40336,1.40336,0,0,1,.7002,1.21289v51.13868a1.40336,1.40336,0,0,1-.7002,1.21289l-44.28711,25.56933A1.39948,1.39948,0,0,1,1935.85352,1072.07163Zm-42.8877-27.77832,42.8877,24.76172,42.88671-24.76172V994.77183l-42.88671-24.76075-42.8877,24.76075Zm87.1748.8086h0Z"/><path class="b579a239-fda9-4b61-8283-25b3f6f40cf4" d="M1873.76074,1045.472a1.40076,1.40076,0,0,1-.70019-.1875l-34.98243-20.19629a1.40049,1.40049,0,0,1,1.4004-2.42578l34.28222,19.793,34.28272-19.793a1.40049,1.40049,0,0,1,1.40039,2.42578l-34.98291,20.19629A1.40082,1.40082,0,0,1,1873.76074,1045.472Z"/><path class="b579a239-fda9-4b61-8283-25b3f6f40cf4" d="M1873.9585,1086.25718a1.4,1.4,0,0,1-1.39991-1.40039v-40.53906a1.39991,1.39991,0,1,1,2.79981,0v40.53906A1.4,1.4,0,0,1,1873.9585,1086.25718Z"/><path class="b579a239-fda9-4b61-8283-25b3f6f40cf4" d="M1873.76074,1086.01108a1.40076,1.40076,0,0,1-.70019-.1875l-34.98243-20.19726a1.40188,1.40188,0,0,1-.6997-1.21289V1024.0189a1.40187,1.40187,0,0,1,.6997-1.21289l34.98243-20.19727a1.40114,1.40114,0,0,1,1.40039,0l34.98291,20.19727a1.40187,1.40187,0,0,1,.6997,1.21289v40.39453a1.40188,1.40188,0,0,1-.6997,1.21289l-34.98291,20.19726A1.40082,1.40082,0,0,1,1873.76074,1086.01108Zm-33.58252-22.40625,33.58252,19.38965,33.583-19.38965v-38.77734l-33.583-19.38965-33.58252,19.38965Zm68.56543.8086h0Z"/><path class="b3f6f9f4-177d-47a4-9653-efb5ddfe07fb" d="M1325.81494,815.95151a1.40076,1.40076,0,0,1-.70019-.1875l-44.2876-25.56835a1.4005,1.4005,0,0,1,1.40039-2.42579l43.5874,25.165,43.58692-25.165a1.4005,1.4005,0,0,1,1.40039,2.42579L1326.51514,815.764A1.40082,1.40082,0,0,1,1325.81494,815.95151Z"/><path class="b3f6f9f4-177d-47a4-9653-efb5ddfe07fb" d="M1326.06494,867.58433a1.4,1.4,0,0,1-1.3999-1.40039V814.86362a1.3999,1.3999,0,1,1,2.7998,0v51.32032A1.4,1.4,0,0,1,1326.06494,867.58433Z"/><path class="b3f6f9f4-177d-47a4-9653-efb5ddfe07fb" d="M1325.81494,867.2728a1.40076,1.40076,0,0,1-.70019-.1875l-44.2876-25.56933a1.40187,1.40187,0,0,1-.69971-1.21289v-51.1377a1.40187,1.40187,0,0,1,.69971-1.21289l44.2876-25.56933a1.40114,1.40114,0,0,1,1.40039,0l44.28711,25.56933a1.40188,1.40188,0,0,1,.6997,1.21289v51.1377a1.40188,1.40188,0,0,1-.6997,1.21289l-44.28711,25.56933A1.40082,1.40082,0,0,1,1325.81494,867.2728Zm-42.88769-27.77832,42.88769,24.76172,42.88721-24.76172V789.974l-42.88721-24.76172L1282.92725,789.974Zm87.1748.8086h0Z"/><path class="b3f6f9f4-177d-47a4-9653-efb5ddfe07fb" d="M1449.04883,640.12925a1.40082,1.40082,0,0,1-.7002-.1875l-44.28711-25.56934a1.40049,1.40049,0,0,1,1.40039-2.42578l43.58692,25.166,43.58691-25.166a1.40049,1.40049,0,0,1,1.40039,2.42578L1449.749,639.94175A1.40076,1.40076,0,0,1,1449.04883,640.12925Z"/><path class="b3f6f9f4-177d-47a4-9653-efb5ddfe07fb" d="M1449.29932,691.76206a1.4,1.4,0,0,1-1.39991-1.40039V639.04038a1.39991,1.39991,0,1,1,2.79981,0v51.32129A1.4,1.4,0,0,1,1449.29932,691.76206Z"/><path class="b3f6f9f4-177d-47a4-9653-efb5ddfe07fb" d="M1449.04883,691.45054a1.40082,1.40082,0,0,1-.7002-.1875l-44.28711-25.56934a1.40187,1.40187,0,0,1-.6997-1.21289V613.34214a1.40188,1.40188,0,0,1,.6997-1.21289l44.28711-25.56836a1.40114,1.40114,0,0,1,1.40039,0l44.28711,25.56836a1.40187,1.40187,0,0,1,.69971,1.21289v51.13867a1.40185,1.40185,0,0,1-.69971,1.21289L1449.749,691.263A1.40076,1.40076,0,0,1,1449.04883,691.45054Zm-42.88721-27.77832,42.88721,24.76172,42.88721-24.76172V614.15073L1449.04883,589.39l-42.88721,24.76074Zm87.17432.80859h0Z"/><polygon points="1298.705 859.615 1298.705 819.22 1263.723 799.023 1228.74 819.22 1228.74 859.615 1263.723 879.812 1298.705 859.615"/><path class="b579a239-fda9-4b61-8283-25b3f6f40cf4" d="M1263.72266,881.21226a1.40082,1.40082,0,0,1-.7002-.1875L1228.04,860.82749a1.40187,1.40187,0,0,1-.69971-1.21289V819.22007a1.40187,1.40187,0,0,1,.69971-1.21289l34.98242-20.19629a1.40114,1.40114,0,0,1,1.40039,0l34.98242,20.19629a1.40187,1.40187,0,0,1,.69971,1.21289V859.6146a1.40187,1.40187,0,0,1-.69971,1.21289l-34.98242,20.19727A1.40079,1.40079,0,0,1,1263.72266,881.21226ZM1230.14014,858.806l33.58252,19.38965,33.58252-19.38965V820.02866L1263.72266,800.64l-33.58252,19.38867Zm68.56494.80859h0Z"/><path class="b3f6f9f4-177d-47a4-9653-efb5ddfe07fb" d="M1394.73242,627.45737h-68.76758a1.40039,1.40039,0,0,1,0-2.80078h68.76758a1.40039,1.40039,0,0,1,0,2.80078Z"/><path class="b3f6f9f4-177d-47a4-9653-efb5ddfe07fb" d="M1363.87061,680.31284h-60.689a1.40039,1.40039,0,0,1,0-2.80078h60.689a1.40039,1.40039,0,0,1,0,2.80078Z"/><path class="b3f6f9f4-177d-47a4-9653-efb5ddfe07fb" d="M1345.64307,707.79526h-89.98243a1.40039,1.40039,0,0,1,0-2.80078h89.98243a1.40039,1.40039,0,0,1,0,2.80078Z"/><path class="b3f6f9f4-177d-47a4-9653-efb5ddfe07fb" d="M1392.23291,653.88511h-58.78125a1.40039,1.40039,0,0,1,0-2.80078h58.78125a1.40039,1.40039,0,0,1,0,2.80078Z"/><path class="b3f6f9f4-177d-47a4-9653-efb5ddfe07fb" d="M1317.79541,653.88511h-59.03906a1.40039,1.40039,0,0,1,0-2.80078h59.03906a1.40039,1.40039,0,0,1,0,2.80078Z"/><path class="b3f6f9f4-177d-47a4-9653-efb5ddfe07fb" d="M1343.56006,729.58823H1305.4834a1.40039,1.40039,0,0,1,0-2.80078h38.07666a1.40039,1.40039,0,0,1,0,2.80078Z"/><path class="b3f6f9f4-177d-47a4-9653-efb5ddfe07fb" d="M1449.04883,691.66636l-.7002-.40332-44.98681-25.97363V612.53355l45.687-26.376.70019.40332,44.98682,25.97266v52.75586Zm-42.88721-27.99414,42.88721,24.76172,42.88721-24.76172V614.15073L1449.04883,589.39l-42.88721,24.76074Z"/><polygon class="bc25106e-1f30-48cf-a402-25b78d582cd8" points="1428.909 739.549 1428.909 699.154 1393.926 678.957 1358.944 699.154 1358.944 739.549 1393.926 759.746 1428.909 739.549"/><path class="b3f6f9f4-177d-47a4-9653-efb5ddfe07fb" d="M1393.92627,761.14585a1.40082,1.40082,0,0,1-.7002-.1875l-34.98242-20.19727a1.40187,1.40187,0,0,1-.6997-1.21289V699.15464a1.40188,1.40188,0,0,1,.6997-1.21289l34.98242-20.19727a1.40114,1.40114,0,0,1,1.40039,0l34.98243,20.19727a1.40188,1.40188,0,0,1,.6997,1.21289v40.39355a1.40187,1.40187,0,0,1-.6997,1.21289l-34.98243,20.19727A1.40076,1.40076,0,0,1,1393.92627,761.14585Zm-33.58252-22.40625,33.58252,19.38965,33.58252-19.38965V699.96323l-33.58252-19.38965-33.58252,19.38965Zm68.56494.80859h0Z"/><path class="b3f6f9f4-177d-47a4-9653-efb5ddfe07fb" d="M1393.92627,720.60776a1.40082,1.40082,0,0,1-.7002-.1875L1358.24365,700.223a1.40049,1.40049,0,0,1,1.40039-2.42578l34.28223,19.79394,34.28223-19.79394a1.40049,1.40049,0,0,1,1.40039,2.42578l-34.98243,20.19726A1.40076,1.40076,0,0,1,1393.92627,720.60776Z"/><path class="b3f6f9f4-177d-47a4-9653-efb5ddfe07fb" d="M1394.124,761.39194a1.4,1.4,0,0,1-1.3999-1.40039V719.45347a1.39991,1.39991,0,1,1,2.79981,0v40.53808A1.4,1.4,0,0,1,1394.124,761.39194Z"/><path class="b579a239-fda9-4b61-8283-25b3f6f40cf4" d="M1509.24023,707.81773l-31.30468-18.07325V653.597l31.30468-18.07324,31.30469,18.07324v36.14746Zm-28.50488-19.69043,28.50488,16.458,28.50489-16.458V655.21421l-28.50489-16.458-28.50488,16.458Z"/><path class="b3f6f9f4-177d-47a4-9653-efb5ddfe07fb" d="M1363.27,1005.08237a1.39994,1.39994,0,0,1-1.3999-1.40039v-68.7666a1.3999,1.3999,0,1,1,2.7998,0v68.7666A1.39994,1.39994,0,0,1,1363.27,1005.08237Z"/><path class="b3f6f9f4-177d-47a4-9653-efb5ddfe07fb" d="M1314.03174,924.25523a1.4,1.4,0,0,1-1.3999-1.4004V871.20054a1.3999,1.3999,0,1,1,2.7998,0v51.65429A1.4,1.4,0,0,1,1314.03174,924.25523Z"/><path class="b3f6f9f4-177d-47a4-9653-efb5ddfe07fb" d="M1314.03174,963.91929a1.4,1.4,0,0,1-1.3999-1.40039V936.69175a1.3999,1.3999,0,1,1,2.7998,0V962.5189A1.4,1.4,0,0,1,1314.03174,963.91929Z"/><path class="b3f6f9f4-177d-47a4-9653-efb5ddfe07fb" d="M1343.47461,977.03355a1.4,1.4,0,0,1-1.3999-1.40039V922.85483a1.3999,1.3999,0,1,1,2.7998,0v52.77833A1.4,1.4,0,0,1,1343.47461,977.03355Z"/><path class="b3f6f9f4-177d-47a4-9653-efb5ddfe07fb" d="M1287.52979,946.48862a1.4,1.4,0,0,1-1.39991-1.40039V879.055a1.39991,1.39991,0,1,1,2.79981,0v66.0332A1.4,1.4,0,0,1,1287.52979,946.48862Z"/><path class="b3f6f9f4-177d-47a4-9653-efb5ddfe07fb" d="M1264.33154,972.24155a1.4,1.4,0,0,1-1.3999-1.40039V889.85581a1.39991,1.39991,0,1,1,2.79981,0v80.98535A1.4,1.4,0,0,1,1264.33154,972.24155Z"/><path class="b3f6f9f4-177d-47a4-9653-efb5ddfe07fb" d="M1240.001,921.388a1.4,1.4,0,0,1-1.39991-1.40039V879.20737a1.39991,1.39991,0,1,1,2.79981,0v40.78028A1.4,1.4,0,0,1,1240.001,921.388Z"/><path class="b3f6f9f4-177d-47a4-9653-efb5ddfe07fb" d="M1382.20508,960.8353a1.39994,1.39994,0,0,1-1.3999-1.40039V922.85483a1.3999,1.3999,0,1,1,2.7998,0v36.58008A1.39994,1.39994,0,0,1,1382.20508,960.8353Z"/><polygon class="bc25106e-1f30-48cf-a402-25b78d582cd8" points="1394.592 904.902 1394.592 870.371 1364.687 853.106 1334.783 870.371 1334.783 904.902 1364.687 922.168 1394.592 904.902"/><path class="b3f6f9f4-177d-47a4-9653-efb5ddfe07fb" d="M1364.6875,923.56773a1.40082,1.40082,0,0,1-.7002-.1875l-29.90478-17.26563a1.40187,1.40187,0,0,1-.69971-1.21289V870.37144a1.40185,1.40185,0,0,1,.69971-1.21289l29.90478-17.26563a1.40116,1.40116,0,0,1,1.4004,0l29.90429,17.26563a1.40185,1.40185,0,0,1,.69971,1.21289v34.53027a1.40187,1.40187,0,0,1-.69971,1.21289l-29.90429,17.26563A1.40082,1.40082,0,0,1,1364.6875,923.56773Zm-28.50488-19.47461,28.50488,16.458,28.50439-16.458V871.18l-28.50439-16.458-28.50488,16.458Zm58.40918.80859h0Z"/><path class="b3f6f9f4-177d-47a4-9653-efb5ddfe07fb" d="M1364.6875,888.91343a1.40082,1.40082,0,0,1-.7002-.1875l-29.90478-17.26465a1.40049,1.40049,0,0,1,1.40039-2.42578l29.20459,16.86133,29.2041-16.86133a1.40049,1.40049,0,0,1,1.40039,2.42578l-29.90429,17.26465A1.40082,1.40082,0,0,1,1364.6875,888.91343Z"/><path class="b3f6f9f4-177d-47a4-9653-efb5ddfe07fb" d="M1364.85645,923.77866a1.4,1.4,0,0,1-1.39991-1.40039V887.724a1.39991,1.39991,0,1,1,2.79981,0v34.65429A1.4,1.4,0,0,1,1364.85645,923.77866Z"/><path class="b579a239-fda9-4b61-8283-25b3f6f40cf4" d="M1263.72266,840.67417a1.40082,1.40082,0,0,1-.7002-.1875L1228.04,820.28941a1.4005,1.4005,0,0,1,1.40039-2.42579l34.28223,19.79395,34.28222-19.79395a1.4005,1.4005,0,0,1,1.40039,2.42579l-34.98242,20.19726A1.40079,1.40079,0,0,1,1263.72266,840.67417Z"/><path class="b579a239-fda9-4b61-8283-25b3f6f40cf4" d="M1263.92041,881.45835a1.39994,1.39994,0,0,1-1.3999-1.40039V839.51987a1.3999,1.3999,0,1,1,2.7998,0V880.058A1.39994,1.39994,0,0,1,1263.92041,881.45835Z"/><polygon points="1539.145 688.936 1539.145 654.405 1509.24 637.14 1479.336 654.405 1479.336 688.936 1509.24 706.202 1539.145 688.936"/><path class="b579a239-fda9-4b61-8283-25b3f6f40cf4" d="M1509.24023,707.60191a1.40082,1.40082,0,0,1-.70019-.1875l-29.90479-17.26563a1.40188,1.40188,0,0,1-.6997-1.21289V654.40562a1.40187,1.40187,0,0,1,.6997-1.21289L1508.54,635.9271a1.40114,1.40114,0,0,1,1.40039,0l29.90478,17.26563a1.40185,1.40185,0,0,1,.69971,1.21289v34.53027a1.40187,1.40187,0,0,1-.69971,1.21289l-29.90478,17.26563A1.40082,1.40082,0,0,1,1509.24023,707.60191Zm-28.50488-19.47461,28.50488,16.458,28.50489-16.458V655.21421l-28.50489-16.458-28.50488,16.458Zm58.40967.80859h0Z"/><path class="b579a239-fda9-4b61-8283-25b3f6f40cf4" d="M1509.40918,707.81284a1.39994,1.39994,0,0,1-1.3999-1.40039V671.75816a1.3999,1.3999,0,1,1,2.7998,0v34.65429A1.39994,1.39994,0,0,1,1509.40918,707.81284Z"/><path class="b579a239-fda9-4b61-8283-25b3f6f40cf4" d="M1509.24023,672.94761a1.40082,1.40082,0,0,1-.70019-.1875l-29.90479-17.26465a1.40049,1.40049,0,0,1,1.40039-2.42578l29.20459,16.86133,29.20459-16.86133a1.40049,1.40049,0,0,1,1.40039,2.42578l-29.90478,17.26465A1.40082,1.40082,0,0,1,1509.24023,672.94761Z"/><path class="b3f6f9f4-177d-47a4-9653-efb5ddfe07fb" d="M1449.04883,1050.01987a1.40082,1.40082,0,0,1-.7002-.1875l-44.28711-25.56933a1.40049,1.40049,0,0,1,1.40039-2.42578l43.58692,25.166,43.58691-25.166a1.40049,1.40049,0,0,1,1.40039,2.42578l-44.28711,25.56933A1.40076,1.40076,0,0,1,1449.04883,1050.01987Z"/><path class="b3f6f9f4-177d-47a4-9653-efb5ddfe07fb" d="M1449.29932,1101.65269a1.4,1.4,0,0,1-1.39991-1.40039V1048.931a1.39991,1.39991,0,1,1,2.79981,0v51.32129A1.4,1.4,0,0,1,1449.29932,1101.65269Z"/><path class="b3f6f9f4-177d-47a4-9653-efb5ddfe07fb" d="M1449.04883,1101.34116a1.40082,1.40082,0,0,1-.7002-.1875l-44.28711-25.56933a1.40188,1.40188,0,0,1-.6997-1.21289v-51.13868a1.40188,1.40188,0,0,1,.6997-1.21289l44.28711-25.56933a1.40114,1.40114,0,0,1,1.40039,0l44.28711,25.56933a1.40187,1.40187,0,0,1,.69971,1.21289v51.13868a1.40187,1.40187,0,0,1-.69971,1.21289l-44.28711,25.56933A1.40076,1.40076,0,0,1,1449.04883,1101.34116Zm-42.88721-27.77832,42.88721,24.76172,42.88721-24.76172v-49.52148l-42.88721-24.76172-42.88721,24.76172Zm87.17432.8086h0Z"/><path class="b3f6f9f4-177d-47a4-9653-efb5ddfe07fb" d="M1394.73242,1037.348h-68.76758a1.40039,1.40039,0,0,1,0-2.80078h68.76758a1.40039,1.40039,0,0,1,0,2.80078Z"/><path class="b3f6f9f4-177d-47a4-9653-efb5ddfe07fb" d="M1392.23291,1063.77476h-58.78125a1.40039,1.40039,0,0,1,0-2.80078h58.78125a1.40039,1.40039,0,0,1,0,2.80078Z"/><path class="b3f6f9f4-177d-47a4-9653-efb5ddfe07fb" d="M1317.79541,1063.77476h-59.03906a1.40039,1.40039,0,0,1,0-2.80078h59.03906a1.40039,1.40039,0,0,1,0,2.80078Z"/><path class="b3f6f9f4-177d-47a4-9653-efb5ddfe07fb" d="M1449.04883,1101.557l-.7002-.40332L1403.36182,1075.18v-52.75586l45.687-26.37695.70019.40332,44.98682,25.97363V1075.18Zm-42.88721-27.99414,42.88721,24.76172,42.88721-24.76172v-49.52148l-42.88721-24.76172-42.88721,24.76172Z"/><path class="b579a239-fda9-4b61-8283-25b3f6f40cf4" d="M1509.24023,1117.70835l-31.30468-18.07324v-36.14844l31.30468-18.07324,31.30469,18.07324v36.14844Zm-28.50488-19.69043,28.50488,16.458,28.50489-16.458v-32.91406l-28.50489-16.458-28.50488,16.458Z"/><polygon points="1539.145 1098.826 1539.145 1064.295 1509.24 1047.03 1479.336 1064.295 1479.336 1098.826 1509.24 1116.092 1539.145 1098.826"/><path class="b579a239-fda9-4b61-8283-25b3f6f40cf4" d="M1509.24023,1117.49253a1.40082,1.40082,0,0,1-.70019-.1875l-29.90479-17.26562a1.40189,1.40189,0,0,1-.6997-1.2129v-34.53125a1.40188,1.40188,0,0,1,.6997-1.21289l29.90479-17.26562a1.40114,1.40114,0,0,1,1.40039,0l29.90478,17.26562a1.40187,1.40187,0,0,1,.69971,1.21289v34.53125a1.40188,1.40188,0,0,1-.69971,1.2129l-29.90478,17.26562A1.40082,1.40082,0,0,1,1509.24023,1117.49253Zm-28.50488-19.47461,28.50488,16.458,28.50489-16.458v-32.91406l-28.50489-16.458-28.50488,16.458Zm58.40967.80859h0Z"/><path class="b579a239-fda9-4b61-8283-25b3f6f40cf4" d="M1509.24023,1082.83823a1.40082,1.40082,0,0,1-.70019-.1875l-29.90479-17.26562a1.40049,1.40049,0,0,1,1.40039-2.42578l29.20459,16.8623,29.20459-16.8623a1.40049,1.40049,0,0,1,1.40039,2.42578l-29.90478,17.26562A1.40082,1.40082,0,0,1,1509.24023,1082.83823Z"/><path class="b3f6f9f4-177d-47a4-9653-efb5ddfe07fb" d="M1363.27,185.41148a1.4,1.4,0,0,1-1.3999-1.4004V115.24351a1.3999,1.3999,0,1,1,2.7998,0v68.76757A1.4,1.4,0,0,1,1363.27,185.41148Z"/><path class="b3f6f9f4-177d-47a4-9653-efb5ddfe07fb" d="M1314.03174,104.58335a1.39994,1.39994,0,0,1-1.3999-1.40039V51.52866a1.3999,1.3999,0,1,1,2.7998,0V103.183A1.39994,1.39994,0,0,1,1314.03174,104.58335Z"/><path class="b3f6f9f4-177d-47a4-9653-efb5ddfe07fb" d="M1314.03174,144.24741a1.39994,1.39994,0,0,1-1.3999-1.40039V117.01987a1.3999,1.3999,0,1,1,2.7998,0V142.847A1.39994,1.39994,0,0,1,1314.03174,144.24741Z"/><path class="b3f6f9f4-177d-47a4-9653-efb5ddfe07fb" d="M1343.47461,157.36167a1.39994,1.39994,0,0,1-1.3999-1.40039V103.183a1.3999,1.3999,0,1,1,2.7998,0v52.77832A1.39994,1.39994,0,0,1,1343.47461,157.36167Z"/><path class="b3f6f9f4-177d-47a4-9653-efb5ddfe07fb" d="M1287.52979,126.81773a1.4,1.4,0,0,1-1.39991-1.4004V59.38316a1.39991,1.39991,0,1,1,2.79981,0v66.03417A1.4,1.4,0,0,1,1287.52979,126.81773Z"/><path class="b3f6f9f4-177d-47a4-9653-efb5ddfe07fb" d="M1264.33154,152.56968a1.4,1.4,0,0,1-1.3999-1.40039V70.18394a1.39991,1.39991,0,1,1,2.79981,0v80.98535A1.4,1.4,0,0,1,1264.33154,152.56968Z"/><path class="b3f6f9f4-177d-47a4-9653-efb5ddfe07fb" d="M1240.001,101.71616a1.4,1.4,0,0,1-1.39991-1.40039V59.5355a1.39991,1.39991,0,1,1,2.79981,0v40.78027A1.4,1.4,0,0,1,1240.001,101.71616Z"/><path class="b3f6f9f4-177d-47a4-9653-efb5ddfe07fb" d="M1382.20508,141.16343a1.39994,1.39994,0,0,1-1.3999-1.40039V103.183a1.3999,1.3999,0,1,1,2.7998,0V139.763A1.39994,1.39994,0,0,1,1382.20508,141.16343Z"/><path class="b3f6f9f4-177d-47a4-9653-efb5ddfe07fb" d="M1326.06494,47.91343a1.39994,1.39994,0,0,1-1.3999-1.40039V-4.80825a1.39994,1.39994,0,0,1,1.3999-1.40039,1.39994,1.39994,0,0,1,1.3999,1.40039V46.513A1.39994,1.39994,0,0,1,1326.06494,47.91343Z"/><path class="b3f6f9f4-177d-47a4-9653-efb5ddfe07fb" d="M1325.81494,47.60191a1.40076,1.40076,0,0,1-.70019-.1875l-44.2876-25.56934a1.40187,1.40187,0,0,1-.69971-1.21289V-30.50649a1.40185,1.40185,0,0,1,.69971-1.21289l44.2876-25.56934a1.40114,1.40114,0,0,1,1.40039,0l44.28711,25.56934a1.40187,1.40187,0,0,1,.6997,1.21289V20.63218a1.40188,1.40188,0,0,1-.6997,1.21289l-44.28711,25.56934A1.40082,1.40082,0,0,1,1325.81494,47.60191Zm-42.88769-27.77833,42.88769,24.76172,42.88721-24.76172V-29.6979l-42.88721-24.76172L1282.92725-29.6979Zm87.1748.8086h0Z"/><polygon class="bc25106e-1f30-48cf-a402-25b78d582cd8" points="1394.592 85.231 1394.592 50.7 1364.687 33.434 1334.783 50.7 1334.783 85.231 1364.687 102.496 1394.592 85.231"/><path class="b3f6f9f4-177d-47a4-9653-efb5ddfe07fb" d="M1364.6875,103.89683a1.40082,1.40082,0,0,1-.7002-.1875L1334.08252,86.4437a1.40185,1.40185,0,0,1-.69971-1.21289V50.69956a1.40187,1.40187,0,0,1,.69971-1.21289l29.90478-17.26562a1.40116,1.40116,0,0,1,1.4004,0L1395.292,49.48667a1.40187,1.40187,0,0,1,.69971,1.21289V85.23081a1.40185,1.40185,0,0,1-.69971,1.21289l-29.90429,17.26563A1.40082,1.40082,0,0,1,1364.6875,103.89683Zm-28.50488-19.47461,28.50488,16.458,28.50439-16.458V51.50816l-28.50439-16.458-28.50488,16.458Zm58.40918.80859h0Z"/><path class="b3f6f9f4-177d-47a4-9653-efb5ddfe07fb" d="M1364.6875,69.24253a1.40082,1.40082,0,0,1-.7002-.1875l-29.90478-17.26562a1.4005,1.4005,0,0,1,1.40039-2.42579l29.20459,16.86231,29.2041-16.86231a1.4005,1.4005,0,0,1,1.40039,2.42579L1365.3877,69.055A1.40082,1.40082,0,0,1,1364.6875,69.24253Z"/><path class="b3f6f9f4-177d-47a4-9653-efb5ddfe07fb" d="M1364.85645,104.10679a1.4,1.4,0,0,1-1.39991-1.40039V68.0521a1.39991,1.39991,0,1,1,2.79981,0v34.6543A1.4,1.4,0,0,1,1364.85645,104.10679Z"/><polygon points="1298.705 39.943 1298.705 -0.451 1263.723 -20.648 1228.74 -0.451 1228.74 39.943 1263.723 60.14 1298.705 39.943"/><path class="b579a239-fda9-4b61-8283-25b3f6f40cf4" d="M1263.72266,61.54038a1.40082,1.40082,0,0,1-.7002-.1875L1228.04,41.15562a1.40187,1.40187,0,0,1-.69971-1.21289V-.45083a1.40187,1.40187,0,0,1,.69971-1.21289L1263.02246-21.861a1.40114,1.40114,0,0,1,1.40039,0l34.98242,20.19727a1.40187,1.40187,0,0,1,.69971,1.21289V39.94273a1.40187,1.40187,0,0,1-.69971,1.21289l-34.98242,20.19726A1.40079,1.40079,0,0,1,1263.72266,61.54038Zm-33.58252-22.40625,33.58252,19.38965,33.58252-19.38965V.35776l-33.58252-19.38964L1230.14014.35776Zm68.56494.8086h0Z"/><path class="b579a239-fda9-4b61-8283-25b3f6f40cf4" d="M1263.72266,21.0023a1.40082,1.40082,0,0,1-.7002-.1875L1228.04.61753a1.4007,1.4007,0,0,1-.51221-1.91309,1.39842,1.39842,0,0,1,1.9126-.51269l34.28223,19.79394,34.28222-19.79394a1.39962,1.39962,0,0,1,1.9126.51269,1.40069,1.40069,0,0,1-.51221,1.91309L1264.42285,20.8148A1.40079,1.40079,0,0,1,1263.72266,21.0023Z"/><path class="b579a239-fda9-4b61-8283-25b3f6f40cf4" d="M1263.92041,61.78648a1.4,1.4,0,0,1-1.3999-1.4004V19.848a1.3999,1.3999,0,1,1,2.7998,0V60.38608A1.4,1.4,0,0,1,1263.92041,61.78648Z"/><path class="b579a239-fda9-4b61-8283-25b3f6f40cf4" d="M1814.25928,400.40073l-31.3042-18.07324V346.17905l31.3042-18.07226,31.30468,18.07226v36.14844Zm-28.5044-19.69043,28.5044,16.458,28.50488-16.458V347.79624l-28.50488-16.457-28.5044,16.457Z"/><path class="b579a239-fda9-4b61-8283-25b3f6f40cf4" d="M1814.42871,400.39487a1.39994,1.39994,0,0,1-1.3999-1.40039V364.34019a1.3999,1.3999,0,1,1,2.7998,0v34.65429A1.39994,1.39994,0,0,1,1814.42871,400.39487Z"/><path class="b579a239-fda9-4b61-8283-25b3f6f40cf4" d="M1814.25928,365.53062a1.40082,1.40082,0,0,1-.7002-.1875l-29.90429-17.26563a1.40049,1.40049,0,0,1,1.40039-2.42578l29.2041,16.8623,29.20459-16.8623a1.40049,1.40049,0,0,1,1.40039,2.42578l-29.90479,17.26563A1.40076,1.40076,0,0,1,1814.25928,365.53062Z"/><path class="b3f6f9f4-177d-47a4-9653-efb5ddfe07fb" d="M1648.5791,12.37632h-38.07666a1.40039,1.40039,0,0,1,0-2.80078h38.07666a1.40039,1.40039,0,0,1,0,2.80078Z"/><polygon class="bc25106e-1f30-48cf-a402-25b78d582cd8" points="1733.928 22.336 1733.928 -18.058 1698.945 -38.255 1663.963 -18.058 1663.963 22.336 1698.945 42.533 1733.928 22.336"/><path class="b3f6f9f4-177d-47a4-9653-efb5ddfe07fb" d="M1698.94531,43.93394a1.40076,1.40076,0,0,1-.70019-.1875L1663.2627,23.54917a1.40187,1.40187,0,0,1-.69971-1.21289V-18.05825a1.40185,1.40185,0,0,1,.69971-1.21289l34.98242-20.19727a1.40114,1.40114,0,0,1,1.40039,0l34.98242,20.19727a1.40185,1.40185,0,0,1,.69971,1.21289V22.33628a1.40187,1.40187,0,0,1-.69971,1.21289l-34.98242,20.19727A1.40082,1.40082,0,0,1,1698.94531,43.93394Zm-33.58252-22.40625,33.58252,19.38964,33.58252-19.38964V-17.24966l-33.58252-19.38965-33.58252,19.38965Zm68.56494.80859h0Z"/><path class="b3f6f9f4-177d-47a4-9653-efb5ddfe07fb" d="M1698.94531,3.39487a1.40076,1.40076,0,0,1-.70019-.1875L1663.2627-16.98892a1.40068,1.40068,0,0,1-.51221-1.91308,1.39928,1.39928,0,0,1,1.9126-.5127l34.28222,19.793,34.28223-19.793a1.40048,1.40048,0,0,1,1.9126.5127,1.40069,1.40069,0,0,1-.51221,1.91308L1699.64551,3.20737A1.40082,1.40082,0,0,1,1698.94531,3.39487Z"/><path class="b3f6f9f4-177d-47a4-9653-efb5ddfe07fb" d="M1699.14307,44.18a1.4,1.4,0,0,1-1.39991-1.40039V2.24058a1.39991,1.39991,0,1,1,2.79981,0V42.77964A1.4,1.4,0,0,1,1699.14307,44.18Z"/><path class="b3f6f9f4-177d-47a4-9653-efb5ddfe07fb" d="M1668.28955,287.87046a1.39994,1.39994,0,0,1-1.3999-1.40039V217.70249a1.3999,1.3999,0,1,1,2.7998,0v68.76758A1.39994,1.39994,0,0,1,1668.28955,287.87046Z"/><path class="b3f6f9f4-177d-47a4-9653-efb5ddfe07fb" d="M1619.05127,207.04233a1.39994,1.39994,0,0,1-1.3999-1.40039V153.98765a1.3999,1.3999,0,1,1,2.7998,0v51.65429A1.39994,1.39994,0,0,1,1619.05127,207.04233Z"/><path class="b3f6f9f4-177d-47a4-9653-efb5ddfe07fb" d="M1619.05127,246.7064a1.4,1.4,0,0,1-1.3999-1.40039V219.47886a1.3999,1.3999,0,1,1,2.7998,0V245.306A1.4,1.4,0,0,1,1619.05127,246.7064Z"/><path class="b3f6f9f4-177d-47a4-9653-efb5ddfe07fb" d="M1648.49365,259.82066a1.4,1.4,0,0,1-1.3999-1.4004V205.64194a1.3999,1.3999,0,1,1,2.7998,0v52.77832A1.4,1.4,0,0,1,1648.49365,259.82066Z"/><path class="b3f6f9f4-177d-47a4-9653-efb5ddfe07fb" d="M1592.54932,229.27671a1.4,1.4,0,0,1-1.39991-1.40039V161.84214a1.39991,1.39991,0,1,1,2.79981,0v66.03418A1.4,1.4,0,0,1,1592.54932,229.27671Z"/><path class="b3f6f9f4-177d-47a4-9653-efb5ddfe07fb" d="M1569.35107,255.02866a1.4,1.4,0,0,1-1.3999-1.40039V172.64292a1.39991,1.39991,0,1,1,2.79981,0v80.98535A1.4,1.4,0,0,1,1569.35107,255.02866Z"/><path class="b3f6f9f4-177d-47a4-9653-efb5ddfe07fb" d="M1545.02051,204.17612a1.39994,1.39994,0,0,1-1.3999-1.40039V161.99546a1.3999,1.3999,0,1,1,2.7998,0v40.78027A1.39994,1.39994,0,0,1,1545.02051,204.17612Z"/><path class="b3f6f9f4-177d-47a4-9653-efb5ddfe07fb" d="M1687.22461,243.62241a1.39994,1.39994,0,0,1-1.3999-1.40039V205.64194a1.3999,1.3999,0,1,1,2.7998,0V242.222A1.39994,1.39994,0,0,1,1687.22461,243.62241Z"/><path class="b3f6f9f4-177d-47a4-9653-efb5ddfe07fb" d="M1630.834,98.7396a1.40082,1.40082,0,0,1-.70019-.1875l-44.28711-25.56934a1.40049,1.40049,0,0,1,1.40039-2.42578L1630.834,95.723l43.58692-25.166a1.40049,1.40049,0,0,1,1.40039,2.42578L1631.53418,98.5521A1.40082,1.40082,0,0,1,1630.834,98.7396Z"/><path class="b3f6f9f4-177d-47a4-9653-efb5ddfe07fb" d="M1631.08447,150.37241a1.4,1.4,0,0,1-1.3999-1.40039V97.65073a1.39991,1.39991,0,1,1,2.79981,0V148.972A1.4,1.4,0,0,1,1631.08447,150.37241Z"/><path class="b3f6f9f4-177d-47a4-9653-efb5ddfe07fb" d="M1630.834,150.06089a1.40082,1.40082,0,0,1-.70019-.1875l-44.28711-25.56934a1.40185,1.40185,0,0,1-.69971-1.21289V71.95249a1.40187,1.40187,0,0,1,.69971-1.21289l44.28711-25.56934a1.40114,1.40114,0,0,1,1.40039,0l44.28711,25.56934a1.40189,1.40189,0,0,1,.69971,1.21289v51.13867a1.40187,1.40187,0,0,1-.69971,1.21289l-44.28711,25.56934A1.40082,1.40082,0,0,1,1630.834,150.06089Zm-42.8872-27.77832,42.8872,24.76172,42.88721-24.76172V72.76108L1630.834,47.99937l-42.8872,24.76171Zm87.17431.80859h0Z"/><polygon class="bc25106e-1f30-48cf-a402-25b78d582cd8" points="1699.611 187.69 1699.611 153.159 1669.707 135.894 1639.802 153.159 1639.802 187.69 1669.707 204.955 1699.611 187.69"/><path class="b3f6f9f4-177d-47a4-9653-efb5ddfe07fb" d="M1669.70654,206.35581a1.40076,1.40076,0,0,1-.70019-.1875l-29.90479-17.26562a1.40188,1.40188,0,0,1-.6997-1.21289V153.15855a1.40187,1.40187,0,0,1,.6997-1.21289l29.90479-17.26465a1.40114,1.40114,0,0,1,1.40039,0l29.90478,17.26465a1.40185,1.40185,0,0,1,.69971,1.21289V187.6898a1.40187,1.40187,0,0,1-.69971,1.21289l-29.90478,17.26562A1.40082,1.40082,0,0,1,1669.70654,206.35581Zm-28.50488-19.47461,28.50488,16.458,28.50489-16.458V153.96714l-28.50489-16.457-28.50488,16.457Zm58.40967.8086h0Z"/><path class="b3f6f9f4-177d-47a4-9653-efb5ddfe07fb" d="M1669.70654,171.70151a1.40076,1.40076,0,0,1-.70019-.1875l-29.90479-17.26562a1.40049,1.40049,0,0,1,1.40039-2.42578l29.20459,16.8623,29.20459-16.8623a1.40049,1.40049,0,0,1,1.40039,2.42578L1670.40674,171.514A1.40082,1.40082,0,0,1,1669.70654,171.70151Z"/><path class="b3f6f9f4-177d-47a4-9653-efb5ddfe07fb" d="M1669.87549,206.56577a1.39994,1.39994,0,0,1-1.3999-1.40039v-34.6543a1.3999,1.3999,0,1,1,2.7998,0v34.6543A1.39994,1.39994,0,0,1,1669.87549,206.56577Z"/><polygon points="1603.724 142.402 1603.724 102.008 1568.742 81.811 1533.759 102.008 1533.759 142.402 1568.742 162.599 1603.724 142.402"/><path class="b579a239-fda9-4b61-8283-25b3f6f40cf4" d="M1568.7417,164.00034a1.40082,1.40082,0,0,1-.7002-.1875l-34.98242-20.19726a1.40188,1.40188,0,0,1-.6997-1.21289V102.00816a1.40189,1.40189,0,0,1,.6997-1.2129L1568.0415,80.598a1.40114,1.40114,0,0,1,1.40039,0l34.98243,20.19726a1.40189,1.40189,0,0,1,.6997,1.2129v40.39453a1.40188,1.40188,0,0,1-.6997,1.21289l-34.98243,20.19726A1.40076,1.40076,0,0,1,1568.7417,164.00034Zm-33.58252-22.40625,33.58252,19.38965,33.58252-19.38965V102.81675L1568.7417,83.4271l-33.58252,19.38965Zm68.56494.8086h0Z"/><path class="b579a239-fda9-4b61-8283-25b3f6f40cf4" d="M1568.7417,123.46128a1.40082,1.40082,0,0,1-.7002-.1875l-34.98242-20.19727a1.40049,1.40049,0,0,1,1.40039-2.42578l34.28223,19.794,34.28223-19.794a1.40049,1.40049,0,0,1,1.40039,2.42578l-34.98243,20.19727A1.40076,1.40076,0,0,1,1568.7417,123.46128Z"/><path class="b579a239-fda9-4b61-8283-25b3f6f40cf4" d="M1568.93945,164.24644a1.4,1.4,0,0,1-1.3999-1.40039V122.307a1.39991,1.39991,0,1,1,2.79981,0v40.53907A1.4,1.4,0,0,1,1568.93945,164.24644Z"/></g></svg>