<svg xmlns="http://www.w3.org/2000/svg" viewBox="0 0 1070 335"><defs><style>.a{fill:#c00;}.b{fill:#e00;}.c{fill:#a30000;}</style></defs><title>Logo-Red_Hat-OpenShift-Container_Platform-A-Standard-RGB</title><path d="M239,225.18c-21.22,0-37.86-16.53-37.86-37.54s16.64-37.55,37.86-37.55,38,16.54,38,37.55S260.16,225.18,239,225.18Zm0-65c-15.09,0-26.73,11.86-26.73,27.46s11.64,27.45,26.73,27.45,26.83-12,26.83-27.45S254.13,160.18,239,160.18Z"/><path d="M287.2,171.1h10.29v5a25,25,0,0,1,16.23-5.82c15.08,0,26.73,12.06,26.73,27.25s-11.65,27.35-27,27.35a26.18,26.18,0,0,1-15.81-5.2v25.9H287.2Zm10.4,14.46v24.13a19.71,19.71,0,0,0,14.66,6.13c10.3,0,18-7.9,18-18.2,0-10.5-7.91-18.3-18-18.3C306.13,179.32,301,181.6,297.6,185.56Z"/><path d="M374.45,170.27c14.56,0,25.59,12.06,25.59,27.66v3H358.23a17.86,17.86,0,0,0,17.89,15.18,20.51,20.51,0,0,0,13.41-4.68l6.66,6.56a31.19,31.19,0,0,1-20.49,7c-15.6,0-27.77-12-27.77-27.46C347.93,182.33,359.48,170.27,374.45,170.27Zm-16.12,22.88h31.41C388.29,185,381.94,179,374.25,179,366.13,179,359.89,184.83,358.33,193.15Z"/><path d="M409.81,171.1h10.4v5.3a21.64,21.64,0,0,1,15.92-6.34c12.16,0,20.59,8.53,20.59,20.7V224h-10.3V192.53c0-8.22-5-13.42-13.21-13.42a14.92,14.92,0,0,0-13,6.86V224h-10.4Z"/><path d="M470.24,204.28C478,212,486,215.72,495.3,215.72c10.61,0,17.68-5,17.68-12.17,0-6.34-4-9.67-14.77-11.44l-12.17-2c-13.52-2.28-19.86-8.63-19.86-18.93,0-12.58,10.5-20.9,26.83-20.9a49.33,49.33,0,0,1,29.33,9.88l-6,8.32c-7.9-6-15.81-8.94-23.82-8.94-9.46,0-15.81,4.36-15.81,10.81,0,5.83,3.64,8.74,13,10.3l11.76,1.87c15.49,2.5,22.36,9,22.36,20.18,0,13.31-11.65,22.36-29,22.36A43.83,43.83,0,0,1,463.58,212Z"/><path d="M569.14,192.53c0-8.22-5-13.42-13.21-13.42a14.91,14.91,0,0,0-13,6.86V224h-10.4v-72.8l10.4-2.29V176.4a21.64,21.64,0,0,1,15.91-6.34c12.17,0,20.6,8.53,20.6,20.7V224h-10.3Z"/><path d="M590.25,156.12a6.48,6.48,0,0,1,6.45-6.44,6.45,6.45,0,0,1,0,12.89A6.48,6.48,0,0,1,590.25,156.12ZM601.9,224H591.5V171.1h10.4Z"/><path d="M622,171.1v-8c0-10.71,6.14-17.05,18-17.05a29.16,29.16,0,0,1,7.49.93V156a20,20,0,0,0-6.55-.94c-5.83,0-8.63,2.5-8.63,8.22v7.8h15.18v8.74H632.27V224H622v-44.2H609.7V171.1Z"/><path d="M663.25,179.84H652V171.1h11.23V157.58l10.3-2.5v16h15.6v8.74h-15.6v28.7c0,5.41,2.19,7.39,7.8,7.39a20.18,20.18,0,0,0,7.59-1.25v8.73a35.46,35.46,0,0,1-9.88,1.57c-10.29,0-15.81-4.89-15.81-14Z"/><path d="M262.55,315.81l5.2,5.41a39.41,39.41,0,0,1-28.6,12,37.55,37.55,0,1,1,0-75.09c11.24,0,21.64,4.27,28.81,12l-5.3,5.62a31.73,31.73,0,0,0-23.51-10.19c-16.84,0-29.64,13.1-29.64,30.16s12.8,30.16,29.85,30.16A31,31,0,0,0,262.55,315.81Z"/><path d="M300.62,278.89c14.77,0,26.52,11.86,26.52,27s-11.75,27.15-26.52,27.15S274,321.22,274,305.93,285.74,278.89,300.62,278.89Zm0,6.87c-10.61,0-19,8.84-19,20.17s8.33,20.28,19,20.28,18.93-8.94,18.93-20.28S311.23,285.76,300.62,285.76Z"/><path d="M337.74,279.93h7.7v6c4.05-4.69,9.57-7.08,16.33-7.08,12,0,20.17,8.22,20.17,20.18v33h-7.59V300.63c0-9.15-5.51-15-14.56-15a16.11,16.11,0,0,0-14.35,8V332h-7.7Z"/><path d="M399.31,286.48H388.08v-6.55h11.23V266.72l7.59-2v15.18h15.71v6.55H406.9v31.93c0,5.62,2.29,7.8,8,7.8a19.28,19.28,0,0,0,7.59-1.35v6.76a30.33,30.33,0,0,1-9.15,1.36c-9.15,0-14-4.48-14-12.59Z"/><path d="M428,317.27c0-10.61,9.16-15.91,20.81-15.91a33.83,33.83,0,0,1,15.28,3.53V298c0-8.43-4.78-12.59-13.83-12.59-5.3,0-10.4,1.57-16.33,4.58L431,284.09c6.87-3.32,13.11-5.2,20-5.2,13.1,0,20.59,6.35,20.59,18.1V332H464.1v-5.1a25.11,25.11,0,0,1-16.85,6C435.92,333,428,326.63,428,317.27Zm20.6,9.67a21.24,21.24,0,0,0,15.49-6V311c-4.16-2.7-8.94-4.06-15.08-4.06-8,0-13.62,3.85-13.62,10.09C435.4,323.09,441,326.94,448.61,326.94Z"/><path d="M483.13,264.75a5.2,5.2,0,1,1,10.4,0,5.2,5.2,0,1,1-10.4,0ZM492.18,332h-7.69V279.93h7.69Z"/><path d="M505.08,279.93h7.69v6c4.06-4.69,9.57-7.08,16.33-7.08,12,0,20.18,8.22,20.18,20.18v33h-7.59V300.63c0-9.15-5.52-15-14.56-15a16.12,16.12,0,0,0-14.36,8V332h-7.69Z"/><path d="M585.57,279.1c13.84,0,24.65,12,24.65,26.83v2.4H567.48c1.14,10.29,9.25,17.88,19.55,17.88,5.41,0,10.82-1.76,14.35-4.78l4.79,5.1A30.67,30.67,0,0,1,586.72,333a26.56,26.56,0,0,1-26.83-27.05C559.89,291.17,571,279.1,585.57,279.1Zm-17.88,23.09h34.84c-1.36-9.26-8.53-16.33-17.16-16.33C576.11,285.86,569.14,292.83,567.69,302.19Z"/><path d="M620.83,279.93h7.7v7.18A16.44,16.44,0,0,1,643,278.79a15.68,15.68,0,0,1,5,.73v7.07a18.54,18.54,0,0,0-5.4-.94c-5.62,0-11,2.81-14,10.61V332h-7.7Z"/><path d="M680.94,259.24h31.62c14.35,0,23.5,8.52,23.5,21s-9.15,21.12-23.5,21.12H689V332h-8Zm8,7.17v28h23c10.2,0,16.12-5.72,16.12-14s-5.92-13.94-16.12-13.94Z"/><path d="M754.36,332h-7.69v-72.8l7.69-1.77Z"/><path d="M764.55,317.27c0-10.61,9.16-15.91,20.81-15.91a33.83,33.83,0,0,1,15.28,3.53V298c0-8.43-4.78-12.59-13.83-12.59-5.3,0-10.4,1.57-16.33,4.58l-2.91-5.93c6.86-3.32,13.1-5.2,20-5.2,13.1,0,20.59,6.35,20.59,18.1V332h-7.49v-5.1a25.1,25.1,0,0,1-16.84,6C772.46,333,764.55,326.63,764.55,317.27Zm20.6,9.67a21.24,21.24,0,0,0,15.49-6V311c-4.16-2.7-8.94-4.06-15.08-4.06-8,0-13.62,3.85-13.62,10.09C771.94,323.09,777.56,326.94,785.15,326.94Z"/><path d="M825.5,286.48H814.27v-6.55H825.5V266.72l7.59-2v15.18H848.8v6.55H833.09v31.93c0,5.62,2.29,7.8,8,7.8a19.28,19.28,0,0,0,7.59-1.35v6.76a30.38,30.38,0,0,1-9.15,1.36c-9.15,0-14-4.48-14-12.59Z"/><path d="M865.54,279.93v-9.88c0-10,5.62-15.81,16.12-15.81a21.31,21.31,0,0,1,7,.94V262a17.88,17.88,0,0,0-6.45-1c-6.14,0-9,2.81-9,9.26v9.67h15.5v6.55h-15.5V332h-7.59V286.48H853.27v-6.55Z"/><path d="M918.48,278.89c14.76,0,26.52,11.86,26.52,27s-11.76,27.15-26.52,27.15-26.63-11.86-26.63-27.15S903.6,278.89,918.48,278.89Zm0,6.87c-10.61,0-19,8.84-19,20.17s8.32,20.28,19,20.28,18.92-8.94,18.92-20.28S929.08,285.76,918.48,285.76Z"/><path d="M955.6,279.93h7.7v7.18a16.45,16.45,0,0,1,14.45-8.32,15.79,15.79,0,0,1,5,.73v7.07a18.67,18.67,0,0,0-5.41-.94c-5.62,0-11,2.81-14,10.61V332h-7.7Z"/><path d="M991.79,279.93h7.7v5.62a19.61,19.61,0,0,1,15.29-6.66,18.25,18.25,0,0,1,16.43,9.47,20.33,20.33,0,0,1,17.78-9.47c11.45,0,19.25,8.22,19.25,20.18v33h-7.6V300.63c0-9.15-5.09-15-13.52-15-5.93,0-10.61,3-13.83,8.53a24.44,24.44,0,0,1,.52,4.89v33h-7.59V300.63c0-9.15-5.1-15-13.52-15-5.62,0-10.09,2.6-13.21,7.49V332h-7.7Z"/><path d="M556.8,98.8c0,11.89,7.15,17.67,20.19,17.67a52,52,0,0,0,11.88-1.68V101a24.8,24.8,0,0,1-7.68,1.16c-5.36,0-7.36-1.68-7.36-6.73V74.3H589.4V60.1H573.83v-18l-17,3.68V60.1H545.54V74.3H556.8Zm-52.95.32c0-3.68,3.68-5.47,9.26-5.47a43,43,0,0,1,10.09,1.26v7.15a21.45,21.45,0,0,1-10.62,2.63c-5.47,0-8.73-2.1-8.73-5.57m5.2,17.56c6,0,10.83-1.26,15.36-4.31v3.37h16.82V80.08c0-13.56-9.15-21-24.4-21-8.52,0-16.93,2-26,6.1L497,77.67c6.52-2.74,12-4.42,16.82-4.42,7.05,0,10.63,2.73,10.63,8.31v2.73a49.55,49.55,0,0,0-12.63-1.58c-14.3,0-22.92,6-22.92,16.73,0,9.78,7.78,17.24,20.19,17.24m-92.44-.94H434.7V86.92H465v28.82h18.09V42.12H465V70.41H434.7V42.12H416.61ZM347.68,87.87c0-8,6.31-14.1,14.62-14.1a17.24,17.24,0,0,1,11.78,4.32V97.54A16.36,16.36,0,0,1,362.3,102c-8.21,0-14.62-6.1-14.62-14.09m26.61,27.87h16.82V38.44l-17,3.68V63.05a28.3,28.3,0,0,0-14.2-3.68c-16.2,0-28.92,12.51-28.92,28.5a28.25,28.25,0,0,0,28.39,28.6,25.15,25.15,0,0,0,14.94-4.83ZM297.09,73c5.37,0,9.89,3.47,11.68,8.83H285.53c1.68-5.57,5.88-8.83,11.56-8.83M268.38,88c0,16.2,13.25,28.82,30.29,28.82,9.36,0,16.2-2.53,23.24-8.42l-11.25-10c-2.63,2.74-6.52,4.21-11.15,4.21a14.38,14.38,0,0,1-13.67-8.83h39.65V89.55c0-17.67-11.88-30.39-28.08-30.39a28.58,28.58,0,0,0-29,28.81M239,57.58c6,0,9.36,3.78,9.36,8.31S245,74.2,239,74.2H221.16V57.58Zm-36,58.16h18.09V88.92h13.78l13.88,26.82H269l-16.2-29.45A22.27,22.27,0,0,0,266.7,65.57c0-13.25-10.41-23.45-26-23.45H203.07Z"/><path class="a" d="M50.18,70.32,23.54,80a77.69,77.69,0,0,0,2.11,12.62L51,83.43a49.49,49.49,0,0,1-.77-13.11"/><path class="a" d="M167.91,40.87a76,76,0,0,0-6.5-11l-26.64,9.7a49.74,49.74,0,0,1,7.83,10.54Z"/><path class="b" d="M109.3,33.33a49.12,49.12,0,0,1,14.39,10.25l26.64-9.7A76.14,76.14,0,0,0,12.45,84.05l26.64-9.69a49.36,49.36,0,0,1,70.21-41"/><path class="b" d="M27.31,92,2,101.26a77.19,77.19,0,0,0,11.9,25.79l26.58-9.67A49.73,49.73,0,0,1,27.31,92"/><path class="b" d="M137.7,82a48.66,48.66,0,0,1-4.47,17.1,49.53,49.53,0,0,1-65.77,24A49,49,0,0,1,53,112.8l-26.58,9.68a76.09,76.09,0,0,0,131-12.1,75.35,75.35,0,0,0,6.85-38Z"/><path class="b" d="M144.25,49.48,119,58.69a49.67,49.67,0,0,1,6.19,27.87l26.58-9.67a76.61,76.61,0,0,0-7.47-27.41"/><path class="c" d="M50.07,75.68a48,48,0,0,1,.11-5.36L23.54,80c.13,1.71.35,3.41.61,5.09Z"/><path class="c" d="M164,33.85c-.84-1.36-1.7-2.7-2.63-4l-26.63,9.7a45.2,45.2,0,0,1,3.27,3.78Z"/><path class="a" d="M26.46,122.48a75.77,75.77,0,0,0,6.78,8.23l28.93-10.56A48.86,48.86,0,0,1,53,112.8ZM164.28,72.33,137.7,82a48.67,48.67,0,0,1-2.24,11.44l28.92-10.55a74.23,74.23,0,0,0-.1-10.55"/></svg>