<?xml version="1.0" encoding="UTF-8"?><svg xmlns="http://www.w3.org/2000/svg" viewBox="0 0 38 38"><title>Red Hat OpenShift AI icon</title>
<desc>Data Science, RHOAI, Cloud</desc>
<metadata><?xpacket begin="﻿" id="W5M0MpCehiHzreSzNTczkc9d"?>
<x:xmpmeta xmlns:x="adobe:ns:meta/" x:xmptk="Adobe XMP Core 8.0-c001 1.000000, 0000/00/00-00:00:00        ">
   <rdf:RDF xmlns:rdf="http://www.w3.org/1999/02/22-rdf-syntax-ns#">
      <rdf:Description rdf:about=""
            xmlns:xmp="http://ns.adobe.com/xap/1.0/"
            xmlns:dc="http://purl.org/dc/elements/1.1/"
            xmlns:tiff="http://ns.adobe.com/tiff/1.0/"
            xmlns:xmpRights="http://ns.adobe.com/xap/1.0/rights/">
         <xmp:rhcc-effective-on>2024-04-05T20:11:14.141Z</xmp:rhcc-effective-on>
         <xmp:rhcc-metadata-complete-moderator>pending</xmp:rhcc-metadata-complete-moderator>
         <xmp:rhcc-translation-id>TRA49ce97d0-b371-4d11-b4df-8497826ae8b3</xmp:rhcc-translation-id>
         <xmp:brand-content-type>Icon</xmp:brand-content-type>
         <xmp:CreateDate>2024-04-05T20:11:14.141Z</xmp:CreateDate>
         <xmp:rhcc-aspect-ratio>square</xmp:rhcc-aspect-ratio>
         <xmp:rhcc-effective-on-set-on-upload>true</xmp:rhcc-effective-on-set-on-upload>
         <xmp:rhcc-metadata-complete-uploader>pending</xmp:rhcc-metadata-complete-uploader>
         <xmp:rhcc-file-last-modified>2024-04-19T19:53:04.630Z</xmp:rhcc-file-last-modified>
         <xmp:rhcc-audience>rhcc-audience:internal</xmp:rhcc-audience>
         <xmp:rhcc-rights-restricted>no</xmp:rhcc-rights-restricted>
         <xmp:brand-content-subtype>Technology icon</xmp:brand-content-subtype>
         <xmp:rhcc-derivative-id>DER49ce97d0-b371-4d11-b4df-8497826ae8b3</xmp:rhcc-derivative-id>
         <xmp:brand-logo-color>Standard</xmp:brand-logo-color>
         <xmp:rhcc-notify-portal-subscribers-on-change>yes</xmp:rhcc-notify-portal-subscribers-on-change>
         <xmp:rhcc-product>
            <rdf:Bag>
               <rdf:li>rhcc-product:red-hat-openshift</rdf:li>
            </rdf:Bag>
         </xmp:rhcc-product>
         <dc:format>image/svg+xml</dc:format>
         <dc:modified>2024-04-05T20:12:04.090Z</dc:modified>
         <dc:title>
            <rdf:Alt>
               <rdf:li xml:lang="x-default">Red Hat OpenShift AI icon</rdf:li>
            </rdf:Alt>
         </dc:title>
         <dc:description>
            <rdf:Alt>
               <rdf:li xml:lang="x-default">Data Science, RHOAI, Cloud</rdf:li>
            </rdf:Alt>
         </dc:description>
         <tiff:ImageLength>38</tiff:ImageLength>
         <tiff:ImageWidth>38</tiff:ImageWidth>
         <xmpRights:UsageTerms>
            <rdf:Alt>
               <rdf:li xml:lang="x-default">Use technology icons to represent Red Hat products and components. Do not remove the icon from the bounding shape.</rdf:li>
            </rdf:Alt>
         </xmpRights:UsageTerms>
      </rdf:Description>
   </rdf:RDF>
</x:xmpmeta>
                                                                                                    
                                                                                                    
                                                                                                    
                                                                                                    
                                                                                                    
                                                                                                    
                                                                                                    
                                                                                                    
                                                                                                    
                                                                                                    
                                                                                                    
                                                                                                    
                                                                                                    
                                                                                                    
                                                                                                    
                                                                                                    
                                                                                                    
           
<?xpacket end="w"?></metadata>
<defs><style>.uuid-8d8f0856-4346-406e-ba5d-c58ff45eea33{fill:#000;}.uuid-8d8f0856-4346-406e-ba5d-c58ff45eea33,.uuid-545f5a6f-272e-4694-91e5-df7d78ef4551,.uuid-723eb260-7671-49fd-a2a8-1c1b992aac4d,.uuid-a50301f7-89df-4607-a39a-1cafc9958442{stroke-width:0px;}.uuid-545f5a6f-272e-4694-91e5-df7d78ef4551{fill:#4d4d4d;}.uuid-723eb260-7671-49fd-a2a8-1c1b992aac4d{fill:#e00;}.uuid-a50301f7-89df-4607-a39a-1cafc9958442{fill:#fff;}</style></defs><g id="uuid-e9922dd2-7fa7-47f6-a158-a8be8e17a7da"><rect class="uuid-8d8f0856-4346-406e-ba5d-c58ff45eea33" x="1" y="1" width="36" height="36" rx="9" ry="9"/><path class="uuid-545f5a6f-272e-4694-91e5-df7d78ef4551" d="M28,2.25c4.2734,0,7.75,3.4766,7.75,7.75v18c0,4.2734-3.4766,7.75-7.75,7.75H10c-4.2734,0-7.75-3.4766-7.75-7.75V10c0-4.2734,3.4766-7.75,7.75-7.75h18M28,1H10C5.0294,1,1,5.0294,1,10v18c0,4.9706,4.0294,9,9,9h18c4.9706,0,9-4.0294,9-9V10c0-4.9706-4.0294-9-9-9h0Z"/></g><g id="uuid-def645f7-1328-4397-b9cd-346313bc6a69"><path class="uuid-723eb260-7671-49fd-a2a8-1c1b992aac4d" d="M25,18.375c-.6749,0-1.254.4134-1.4993,1h-1.5007c-.3447,0-.625.2798-.625.625v2.5007c-.5867.2454-1,.8246-1,1.4993,0,.896.7285,1.625,1.625,1.625s1.625-.729,1.625-1.625c0-.6746-.4133-1.2538-1-1.4993v-1.8757h.8757c.2453.5866.8243,1,1.4993,1,.8965,0,1.625-.729,1.625-1.625s-.7285-1.625-1.625-1.625ZM22,24.375c-.207,0-.375-.1685-.375-.375s.168-.375.375-.375.375.1685.375.375-.168.375-.375.375ZM25,20.375c-.207,0-.375-.1685-.375-.375s.168-.375.375-.375.375.1685.375.375-.168.375-.375.375Z"/><path class="uuid-723eb260-7671-49fd-a2a8-1c1b992aac4d" d="M20.3217,18.0611c.3416-.7671,1.0847-2.4361,1.0847-2.4361h2.0944c.2453.5866.8243,1,1.4993,1,.8965,0,1.625-.729,1.625-1.625s-.7285-1.625-1.625-1.625c-.6749,0-1.254.4134-1.4993,1h-2.4863c-.2062.0132-.4263.0987-.5286.2903-.0182.0278-.0433.049-.0571.0803l-1.1818,2.6544c-.0811-.0125-.1624-.025-.2469-.025-.896,0-1.625.729-1.625,1.625s.729,1.625,1.625,1.625c.8965,0,1.625-.729,1.625-1.625,0-.3504-.114-.6732-.3033-.9389ZM25,14.625c.207,0,.375.1685.375.375s-.168.375-.375.375-.375-.1685-.375-.375.168-.375.375-.375ZM19,19.375c-.2065,0-.375-.1685-.375-.375s.1685-.375.375-.375c.207,0,.375.1685.375.375s-.168.375-.375.375Z"/><path class="uuid-a50301f7-89df-4607-a39a-1cafc9958442" d="M11.375,19.5c0,1.9106,1.3345,3.5586,3.1665,3.9961.4209,1.2563,1.6025,2.1289,2.9585,2.1289.6821,0,1.3306-.2163,1.875-.6255.0222-.0167.0338-.0407.0532-.0596.0112-.0107.02-.0226.0305-.0341.0419-.0474.0775-.0961.1027-.1522.0107-.0226.0164-.0464.0244-.0704.0155-.0497.0275-.0981.0303-.15.0012-.0154.009-.0287.009-.0444v-1.4888c0-.3452-.2803-.625-.625-.625-.3452,0-.625.2798-.625.625v1.1317c-.2704.1454-.562.2433-.875.2433-.8893,0-1.6507-.6279-1.8291-1.4967v-.8783c0-.2065.1685-.375.375-.375.3452,0,.625-.2798.625-.625s-.2798-.625-.625-.625c-.896,0-1.625.729-1.625,1.625v.1367c-1.0578-.4308-1.7959-1.4572-1.7959-2.6367,0-.385.0887-.7578.2424-1.1099.2491.231.5193.4421.8196.6158.0986.0571.2061.084.3125.084.2158,0,.4258-.1118.5415-.312.1729-.2988.0708-.6812-.228-.854-.4088-.2364-.7539-.5545-1.0258-.9242-.0059-.009-.0078-.0197-.0142-.0284-.104-.1436-.1954-.2933-.275-.4474-.0035-.0071-.007-.0142-.0105-.0213-.0687-.1354-.1251-.2755-.1746-.4174-.011-.0322-.0229-.0639-.033-.0964-.0385-.1225-.0669-.2475-.0909-.3735-.0078-.0412-.0186-.0816-.0248-.1232-.0245-.1622-.0392-.3263-.0392-.492,0-.1746.0175-.3455.0435-.5137.0088-.0569.0224-.1125.0341-.1687.0233-.1121.0513-.2227.0856-.3307.0186-.0586.0379-.1168.0596-.1743.0438-.1153.0942-.2272.1501-.3364.0195-.0383.0363-.0781.0572-.1157.1738-.3097.3943-.5914.6564-.8322.0021-.002.0043-.0037.0065-.0057.2084-.1904.4479-.3463.7021-.481.0228.8763.7391,1.5833,1.6208,1.5833.3452,0,.625-.2798.625-.625s-.2798-.625-.625-.625c-.2065,0-.375-.1685-.375-.375v-.822c.157-.9017.9188-1.553,1.834-1.553.313,0,.6046.098.875.2433v3.1317c0,.3452.2798.625.625.625.3447,0,.625-.2798.625-.625v-3.1317c.2706-.1453.562-.2433.875-.2433.9297,0,1.7061.6719,1.8447,1.5977.0381.25.2227.4531.4678.5137.5176.1284,1.0049.3828,1.4102.7349.1182.103.2646.1538.4102.1538.1738,0,.3477-.0728.4717-.2144.2266-.2603.1992-.6553-.0615-.8818-.4531-.3945-.9824-.6992-1.5488-.8931-.3779-1.3315-1.5791-2.2607-2.9941-2.2607-.5325,0-1.0424.1355-1.5002.3877-.4578-.2522-.9676-.3877-1.4998-.3877-1.416,0-2.6172.9287-2.9946,2.2603-.2598.0884-.5046.203-.7395.3323-.0261.0107-.0538.0121-.0789.0266-.5633.3257-1.038.7651-1.4114,1.2755-.039.0529-.0724.1092-.1091.1638-.0828.1238-.1616.2495-.2321.3805-.0427.0789-.0809.1593-.119.2408-.0547.1175-.1041.2368-.1489.3587-.0325.0883-.0641.1761-.0912.2667-.0399.1332-.0703.2688-.0982.4058-.0162.0803-.0366.159-.0486.2407-.0329.2217-.0535.446-.0535.6736,0,.205.0137.4084.0407.6093.0818.6114.2864,1.1952.5925,1.72-.4153.6574-.6332,1.3994-.6332,2.1708Z"/><path class="uuid-a50301f7-89df-4607-a39a-1cafc9958442" d="M28.2793,24.4409l-1-.5c-.3066-.1533-.6826-.0303-.8379.2798-.1455.2891-.0439.6367.2227.8066l-7.6641,4.2578-7.6641-4.2578c.2671-.1699.3677-.5176.2231-.8066-.1533-.3086-.5298-.4336-.8384-.2798l-1,.5c-.2075.1035-.3403.3135-.3457.5454-.0049.2319.1187.4473.3213.5601l9,5c.0947.0522.1992.0786.3037.0786s.209-.0264.3037-.0786l9-5c.2021-.1128.3262-.3281.3213-.5601s-.1377-.4419-.3457-.5454Z"/></g></svg>