<svg xmlns="http://www.w3.org/2000/svg" viewBox="0 0 1200 1200"><defs><style>.cls-1{fill:#dedede;}.cls-2,.cls-22{fill:#e00;}.cls-12,.cls-14,.cls-15,.cls-16,.cls-17,.cls-18,.cls-19,.cls-21,.cls-26,.cls-3,.cls-32,.cls-6,.cls-8{fill:none;}.cls-15,.cls-27,.cls-3{stroke:#fff;}.cls-16,.cls-17,.cls-18,.cls-19,.cls-20,.cls-21,.cls-25,.cls-26,.cls-28,.cls-29,.cls-3,.cls-30,.cls-31,.cls-32,.cls-6,.cls-8{stroke-linecap:round;stroke-linejoin:round;}.cls-3{stroke-width:4.19px;}.cls-4{fill:#5f0000;}.cls-29,.cls-5{fill:#8f0000;}.cls-19,.cls-6{stroke:#f56d6d;}.cls-6{stroke-width:3.2px;}.cls-20,.cls-27,.cls-28,.cls-30,.cls-7{fill:#fff;}.cls-22,.cls-28,.cls-8{stroke:#e00;}.cls-13,.cls-14,.cls-18,.cls-19,.cls-20,.cls-22,.cls-25,.cls-26,.cls-27,.cls-28,.cls-29,.cls-31,.cls-32,.cls-8{stroke-width:2.5px;}.cls-9{fill:#be0000;}.cls-10{fill:#fddbdb;}.cls-11{fill:#fab6b6;}.cls-12,.cls-13,.cls-17,.cls-21,.cls-30,.cls-31,.cls-32{stroke:#000;}.cls-12,.cls-13,.cls-14,.cls-15,.cls-22,.cls-27{stroke-miterlimit:10;}.cls-12,.cls-15,.cls-16{stroke-width:2px;}.cls-14{stroke:#fddbdb;}.cls-16{stroke:#6c6c6c;}.cls-17{stroke-width:2.17px;}.cls-18,.cls-25{stroke:#fab6b6;}.cls-20{stroke:#dedede;}.cls-21{stroke-width:2.75px;}.cls-23{fill:#f56d6d;}.cls-24,.cls-25{fill:#ffd9da;}.cls-26{stroke:#c9c9c9;}.cls-29{stroke:#8f0000;}.cls-30{stroke-width:2.2px;}</style></defs><g id="container"><path class="cls-1" d="M193,934c33.09,43.48,76.82,78.78,124.57,98.52,102.6,42.41,219.61,28.12,327.65,39.29,95.81,9.91,193.07,20,280.24-30,72.41-41.57,141.14-115.23,151.34-201.08,11.77-99.05-47.74-174.73-108-245.06-62.19-72.54-53.91-163.56-91.48-246.54-36-79.55-116.54-134.65-204.63-132.93C581.31,218,505.85,271.52,454.82,343.9c-25.27,35.83-46.05,74.78-73.5,109.09-27.76,34.72-62.85,60.14-97.46,87.52-68.3,54-149.37,120.43-152.72,214.69C128.91,818,153.32,881.88,193,934Z"/></g><g id="gfx"><circle class="cls-2" cx="796.45" cy="630.08" r="37.8"/><polyline class="cls-3" points="780.18 631.57 790.03 641.42 812.72 618.74"/><circle class="cls-2" cx="892.87" cy="630.08" r="37.8"/><polyline class="cls-3" points="876.6 631.57 886.45 641.42 909.14 618.74"/><circle class="cls-2" cx="989.29" cy="630.08" r="37.8"/><polyline class="cls-3" points="973.02 631.57 982.88 641.42 1005.56 618.74"/><polygon class="cls-4" points="670.31 360.44 670.31 569.43 717.99 525.37 765.66 569.43 765.66 360.44 670.31 360.44"/><path class="cls-5" d="M718,450.77a75.31,75.31,0,0,1-47.68-16.93V569.43L718,525.37l47.67,44.06V433.84A75.3,75.3,0,0,1,718,450.77Z"/><circle class="cls-2" cx="717.99" cy="365.84" r="75.62"/><path class="cls-6" d="M656.4,365.84A61.59,61.59,0,0,1,718,304.25"/><polygon class="cls-7" points="717.99 389.16 692.44 402.58 697.32 374.14 676.66 354 705.22 349.85 717.99 323.98 730.76 349.85 759.31 354 738.65 374.14 743.53 402.58 717.99 389.16"/><path class="cls-8" d="M750.52,454.5a94.8,94.8,0,0,1-67.53-.94"/><path class="cls-9" d="M803.77,662.22a37.77,37.77,0,0,1-26.56-64.65A37.78,37.78,0,1,0,823,656.94,37.56,37.56,0,0,1,803.77,662.22Z"/><path class="cls-9" d="M900.19,662.22a37.77,37.77,0,0,1-26.56-64.65,37.78,37.78,0,1,0,45.8,59.37A37.56,37.56,0,0,1,900.19,662.22Z"/><path class="cls-9" d="M996.61,662.22a37.77,37.77,0,0,1-26.56-64.65,37.78,37.78,0,1,0,45.8,59.37A37.56,37.56,0,0,1,996.61,662.22Z"/><path class="cls-10" d="M545.6,637s-2.44,15.74-2.22,20.4-.22,11.08,4.22,14l14.12,10L558,729l-2.67,33.25-14,18-17.29,5.1H492.84s-16.63-4.66-17.07-6.21S465,738.27,465,738.27V711.11l-11.22-23.39-3.93-22.83s13.43-11.11,15.43-25.52c0,0,2-56.35,7.23-59.67l7,3.6Z"/><path class="cls-11" d="M526.68,750.69c-4.31-12-11-23.12-13.16-35.86-1.19-6.91-1.41-13.89-1.86-20.88a95.74,95.74,0,0,0-1.28-11.2c-.61-3.22-1.57-6.35-2.21-9.56-1.1-5.49-1.37-11.13.48-16.5,1.47-4.27,6-5.15,10-5.24a71.47,71.47,0,0,0,13.62-1.26A32,32,0,0,0,539,648c1.49-.7,4.84-2,5.59-3.57l.45-3.31s-3.35-1.11-3.82-1.71q-2.56-3.18-5.09-6.39c-1.6-2-3.2-4.07-4.74-6.14-.6-.81-2-2.15-2.16-3.21L479.54,583.3l-7-3.6c-5.21,3.32-7.23,59.67-7.23,59.67-2,14.41-15.43,25.52-15.43,25.52l3.93,22.83L465,711.11v27.16s10.28,39.24,10.73,40.79,17.07,6.21,17.07,6.21H524.1l6.21-1.84C531.29,772.4,530.49,761.32,526.68,750.69Z"/><path class="cls-12" d="M453.93,672.32c.5.66,35.25,52,63.35,53.87,0,0,35.08-17,30.92-53.87"/><path class="cls-7" d="M474.88,734.77s46.23,37,89.45-4V900.71H462.24V732.11Z"/><path class="cls-13" d="M576.29,497.51s16.31-3.94,21,16.18c0,0,1.31,26.16-10.07,41.52,0,0-8.81,7.37-8.19,16.35L573.84,526Z"/><path class="cls-10" d="M475.88,580.86l4.9,24.78a22.28,22.28,0,0,0,7.64,12.83c9.34,7.73,28.57,20.83,53.63,22.92,0,0,13.64.33,17.3-14.64,0,0,11-23.27,16.95-29.59s6-28.6,4.66-35.58c0,0,0-9.13,2.66-15.46a43.37,43.37,0,0,0,2.82-8.68A46.75,46.75,0,0,0,585,515.07a77.3,77.3,0,0,0-4.28-10.46c-1-2.15-1.74-6.34-4.39-7.1l-42.88-12.42-39.58,12.64L481.2,528l-11.64,29.24Z"/><path class="cls-11" d="M522.8,627.79a46.73,46.73,0,0,0-5.2-17.2C514.65,605.12,511,600,509,594c-2.37-7.21-1.94-15-.28-22.28,1.6-7,4.59-13.48,4.59-20.81,0-14.82-12.38-26.17-12.1-41.23.22-12.16,20.12-8.06,16.65-19.65l-24.06,7.68L481.2,528l-11.64,29.24,6.32,23.61,4.9,24.78a22.28,22.28,0,0,0,7.64,12.83,105.71,105.71,0,0,0,34.72,19.14A67.13,67.13,0,0,0,522.8,627.79Z"/><path class="cls-14" d="M475.88,580.86l4.9,24.78a22.28,22.28,0,0,0,7.64,12.83c9.34,7.73,28.57,20.83,53.63,22.92,0,0,13.64.33,17.3-14.64,0,0,11-23.27,16.95-29.59s6-28.6,4.66-35.58c0,0,0-9.13,2.66-15.46a43.37,43.37,0,0,0,2.82-8.68A46.75,46.75,0,0,0,585,515.07a77.3,77.3,0,0,0-4.28-10.46c-1-2.15-1.74-6.34-4.39-7.1l-42.88-12.42-39.58,12.64L481.2,528l-11.64,29.24Z"/><path d="M551.34,550.46a31.07,31.07,0,0,0-3.54-2.58,40.67,40.67,0,0,0-3.91-2.23,43.13,43.13,0,0,0-8.45-3.21,32.06,32.06,0,0,0-8.93-1.15,25.46,25.46,0,0,0-8.82,1.64l-.07,0a.75.75,0,0,1-1-.41.73.73,0,0,1,.36-.94,27,27,0,0,1,9.37-2.52,34,34,0,0,1,9.71.53,45.55,45.55,0,0,1,9.25,2.9,44.48,44.48,0,0,1,4.38,2.16,37.34,37.34,0,0,1,4.2,2.72,2,2,0,1,1-2.43,3.19l-.09-.08Z"/><path d="M566.09,551a15.25,15.25,0,0,1,2.6-.8,18.63,18.63,0,0,1,2.56-.39,18.29,18.29,0,0,1,5.12.26,13.83,13.83,0,0,1,4.77,1.92,13.13,13.13,0,0,1,3.69,3.48.74.74,0,0,1-1.15.94l0-.06a11.25,11.25,0,0,0-3.54-2.44,11.91,11.91,0,0,0-4.11-1,15.52,15.52,0,0,0-4.25.3,14.72,14.72,0,0,0-2,.57,11.38,11.38,0,0,0-1.8.79h0a2,2,0,0,1-2-3.46Z"/><path class="cls-15" d="M546.76,668.68c-5.48-4.22-1.77-27.61-1.77-27.61s12.74.65,16.4-14.32c0,0,11-23.27,17-29.59s6-28.6,4.65-35.58c0,0,0-9.13,2.66-15.46a43.37,43.37,0,0,0,2.82-8.68A46.87,46.87,0,0,0,587,515.07a78.67,78.67,0,0,0-4.29-10.46l-3-7.3"/><path class="cls-13" d="M453.43,524.28s-25.44-2.19-34.35,12.57-2.21,20.45-.16,25.78c2.84,7.41-3.1,16.59,4.42,22.39,2.38,1.83,4.86,2.37,7.69,3.05a76.55,76.55,0,0,1,10.13,3.66,21,21,0,0,0,6.79,1.8c8.67.33,15.31-10.69,14.57-18.45C460.31,552,453.43,524.28,453.43,524.28Z"/><path class="cls-16" d="M445.83,532.25c-12.34-7-25.71,9.17-23.27,18.68"/><path class="cls-13" d="M563,493.4a117.69,117.69,0,0,0-14.19-2c-5.54-.48-11.59-.46-16.46,2.61a9.71,9.71,0,0,0-2.92,2.93c-5.43,8.31,7.6,31.76-39.88,58.19-1.29.72-17.36,27-18.11,28.26-1.83,3.1-5.67,20.41-5.3,28.35a.47.47,0,0,1-.9.23c-6.13-12.08-30.36-63.63-18-100.71,0,0,8-32.83,49.36-49.93,0,0,50.1-24.71,92,20.18a7.89,7.89,0,0,1,1.23,1.75v0a10.41,10.41,0,0,1-5.7,14.34c-4.78,1.79-9.67-1.15-14.22-2.45Q566.45,494.13,563,493.4Z"/><path class="cls-11" d="M478,585.06c-14.15,0-25.16-43.64-7.86-43.64,4.7,0,7.75,5.86,9,8.82s6.09,7.32,9.49,6.46l6.46-3.33,2.5-.23-.67,10.76-.58,23.78L484,591.34Z"/><path class="cls-17" d="M563.12,559.67c8.59-4.08,17.17.69,17.17.69"/><path class="cls-8" d="M565.66,554c21.25-2.15,26.68,6,26.68,6s-4,19.91-10,21.61c0,0-5.49,1.55-13.35-1.37"/><circle cx="570.75" cy="560.99" r="4.09"/><path class="cls-18" d="M564.54,554.77c-1.37,1.15-3.3,3.68-1.63,8.14a113.29,113.29,0,0,1,4.21,14,11.29,11.29,0,0,1,1.53,3.26,8.26,8.26,0,0,1-9.52,10.42,6.07,6.07,0,0,1-2.87-1.49"/><path class="cls-2" d="M376.45,673.09c0-.71,10.54-2.77,11.66-3,4.18-1,8.38-1.81,12.61-2.52,8.23-1.38,16.58-1.84,24.81-3.15a152.51,152.51,0,0,0,22.56-5.54c3.58-1.15,7.16-2.36,10.63-3.84,0,0,20.15,71.51,24,103.1,8.27,28.5,14.1,57.82,14.67,87.57.43,22.21-.2,44.5-.2,66.73H376.45Z"/><path class="cls-2" d="M609.42,687s34.17,4.07,40.38,23.57l55.42,127.1v81.14l-85.89-78.9Z"/><path class="cls-2" d="M544.71,667a1.08,1.08,0,0,1,1.38-1.41c10.14,3.63,52.31,18.62,66.56,22.3a9.61,9.61,0,0,1,7.12,8.06c1.9,14.16,5.66,47.09,4.31,76.7-1.3,28.57-5.45,81.62-3.23,116,.37,5.67.91,10.83,1.66,15.29.92,5.43-17.24,7.48-15.61,10.48l-51.55,2.33c.44-16.31.48-32.67,0-49-.45-15.22-3.92-30-4.79-45.22-1.13-19.66.91-38.8,4.47-58.1,3.09-16.72.55-33.68,0-50.72C554.52,697.23,550.42,682.22,544.71,667Z"/><path class="cls-19" d="M618,743.08c.41,9.68.52,19.8.08,29.55-1.51,33.28-.9,99.8,4.43,131.29"/><rect class="cls-7" y="914.57" width="1200" height="285.43"/><polygon class="cls-20" points="297.93 947.68 393.37 947.68 399.68 1001.85 245.82 1001.85 297.93 947.68"/><polygon class="cls-20" points="952.78 933 837.34 933 851.02 987.17 1004.88 987.17 952.78 933"/><line class="cls-8" x1="95.78" y1="914.57" x2="1155.26" y2="914.57"/><circle cx="533.31" cy="557.21" r="5"/><path class="cls-21" d="M543.39,556.42C532.79,548,519,553.83,519,553.83"/><path class="cls-8" d="M555.31,552.13S537,539.66,514.32,542c0,0-2.67,19.61.78,26,4.36,8.11,23,9.08,29.51,7.26S555.31,552.13,555.31,552.13Z"/><polygon class="cls-2" points="514.2 547.29 477.39 549.44 477.26 547.1 514.05 540.74 514.2 547.29"/><path class="cls-8" d="M565.12,554.34s-5.11-3.18-9.81-2.21"/><path class="cls-2" d="M401.72,850.22c10.31-19,1.66-28.93,9-90.45s-34.25-86.68-34.25-86.68-19.28,6.21-24.94,16.85c0,0-19.62,35.58-17.29,74.49,0,0-.06,63.51-2.19,78.48s-13.11,40.56-5.8,64.84C326.23,907.75,348.51,860.53,401.72,850.22Z"/><path class="cls-22" d="M386.87,845.34s16.4,1.78,23.28,12l46.33,12S409,902.1,413.69,933.14c0,0-81.58,14.63-87.46-25.39l2-31"/><path class="cls-23" d="M525.52,600.78c4.62,1.59,8.4,18.56,26.87,17.2,8.5-.62,9.84-10.1,9.84-10.1a85.49,85.49,0,0,0-16.92-1c-9.43.39-17.76-4.57-17.76-4.57"/><path class="cls-2" d="M563.73,607.73a23.1,23.1,0,0,1-9.93,1.78,35.13,35.13,0,0,1-5-.49l-5-.76a64.91,64.91,0,0,1-9.78-2.31,40.89,40.89,0,0,1-9.16-4.35,1.14,1.14,0,0,1,1.18-1.94l0,0a35.75,35.75,0,0,0,8.77,3.39,62.93,62.93,0,0,0,9.4,1.44c3.18.34,6.39,0,9.57,0a38.85,38.85,0,0,1,9.63,1l0,0a1.2,1.2,0,0,1,.87,1.45A1.25,1.25,0,0,1,563.73,607.73Z"/><path class="cls-11" d="M478,585.06c-14.15,0-25.16-43.64-7.86-43.64,4.7,0,7.75,5.86,9,8.82s8.64,6,12.05,5.15"/><path class="cls-4" d="M593.51,809.55h0a5.5,5.5,0,0,1,5.5,5.5v41.44a.44.44,0,0,1-.44.44H588.45a.44.44,0,0,1-.44-.44V815.05a5.5,5.5,0,0,1,5.5-5.5Z" transform="translate(-423.24 720.27) rotate(-48.2)"/><path class="cls-24" d="M647.2,894.78l3.7.23a7.06,7.06,0,0,0,4.11-1h0a7.1,7.1,0,0,0,3.43-5.63l.15-2.42s-4.44-2.62-5.17-6.83l-9.57-4.27L622,873.48l-1.14,18.17L643,893"/><path class="cls-10" d="M655,861.89a10.47,10.47,0,0,0,.92-6.52,4.41,4.41,0,0,0-1.59-2.74l-12.55-10.21a4.45,4.45,0,0,0-2.84-1l-34.47.17a4.44,4.44,0,0,0-3.33,1.53l-19.36,22.23a4.65,4.65,0,0,1-1.17.95l-13.15,7.42c-8.28,4.48-62.13,2.43-62.13,2.43a497.87,497.87,0,0,1-70.26-4.2,4.49,4.49,0,0,0-4,1.52l-37.36,43.9a4.43,4.43,0,0,0,1.47,6.91c10.85,4.78,36.5-.12,39.87-.8a4,4,0,0,1,.77-.08l128.73-2.88,22.09.4a3.78,3.78,0,0,0,.75,0c3.08-.47,24-4,32.93-12.63a4.56,4.56,0,0,1,1.22-.86,40.06,40.06,0,0,1,13.2-3.61l6.43-.24a4.4,4.4,0,0,0,2-.57l2.73-1.55a4.46,4.46,0,0,0,2.24-3.46h0a4.46,4.46,0,0,0-2.38-4.37l-.87-.46a4.45,4.45,0,0,0-1.75-.49L625,891.33"/><path class="cls-11" d="M448.94,912.85c-1.44-7.65-1.89-15.64-.29-23.31a55.21,55.21,0,0,1,5.75-15.42c-9.29-.83-16-1.7-19.33-2.17a4.49,4.49,0,0,0-4,1.52l-37.36,43.9a4.43,4.43,0,0,0,1.47,6.91c10.85,4.78,36.5-.12,39.87-.8a4,4,0,0,1,.77-.08l15.76-.35A83.8,83.8,0,0,1,448.94,912.85Z"/><path class="cls-25" d="M623,857l24.73,1.56,13.51,6.32s3.48,7,3.14,12.44c0,0,.3,3.18,1.06,4.23,0,0-3.28,4.62-5.33,5.33,0,0-6-3-6.67-7.75l-9.57-4.27-17.93-1"/><path class="cls-25" d="M647.2,894.78l3.7.23a7.06,7.06,0,0,0,4.11-1h0a7.1,7.1,0,0,0,3.43-5.63l.15-2.42s-4.44-2.62-5.17-6.83"/><path class="cls-25" d="M587.36,920.87c3.08-.47,24-4,32.93-12.63a4.56,4.56,0,0,1,1.22-.86,40.06,40.06,0,0,1,13.2-3.61l6.43-.24a4.4,4.4,0,0,0,2-.57l2.73-1.55a4.46,4.46,0,0,0,2.24-3.46h0a4.46,4.46,0,0,0-2.38-4.37l-.87-.46a4.45,4.45,0,0,0-1.75-.49L625,891.33"/><path class="cls-2" d="M386.87,845.34s16.4,1.78,23.28,12l43.6,14.61S409,902.1,413.69,933.14c0,0-81.58,14.63-87.46-25.39l2-31"/><path class="cls-19" d="M401.82,850.22c10.31-19,3.84-24.91,6.88-86.79"/><path class="cls-19" d="M387,845.34s16.4,1.78,23.27,12l43.51,14.61s-44.61,30.17-40,61.21"/><path class="cls-16" d="M507.06,504.13c3.25-3.81,6.34-7.8,9.88-11.32a51.73,51.73,0,0,1,19.45-12.44c9.87-3.45,21-3.71,30.6.65"/><path class="cls-16" d="M464.57,528.65c12.55-1.81,21.07-7.2,31.72-14.36"/><line class="cls-26" x1="278.68" y1="981.9" x2="374.45" y2="981.9"/><line class="cls-26" x1="290.2" y1="970.77" x2="384.97" y2="970.77"/><line class="cls-26" x1="300.18" y1="959.62" x2="392.95" y2="959.62"/><circle class="cls-27" cx="517.44" cy="729.85" r="3.66"/><polygon points="585.87 928.63 585.87 938.83 692.31 964.54 762.34 964.54 762.34 928.63 585.87 928.63"/><path d="M935.87,964.54H692.31a10,10,0,0,1-9.89-11.46L714.1,739a10,10,0,0,1,9.89-8.53H967.55a10,10,0,0,1,9.9,11.46L945.77,956A10,10,0,0,1,935.87,964.54Z"/><line class="cls-28" x1="914.46" y1="750.44" x2="955.97" y2="750.44"/><polyline class="cls-8" points="706.26 928.59 732.62 750.44 870.79 750.44"/><polygon class="cls-29" points="340.1 925.6 549.39 925.82 597.05 953.09 597.05 969.28 364.05 987.68 340.1 933.27 340.1 925.6"/><polyline class="cls-8" points="586.63 954.64 368.48 971.76 352.22 938.15"/><polygon class="cls-30" points="370.1 923.59 370.1 938.59 426.48 959.98 426.48 941.79 370.1 923.59"/><polygon class="cls-20" points="541.31 941.79 541.31 926.87 426.48 941.79 426.48 959.98 541.31 941.79"/><polygon class="cls-31" points="426.48 941.79 549.39 925.82 471.76 911.51 370.1 923.59 426.48 941.79"/><polyline class="cls-32" points="547.91 941.09 426.48 959.98 419.95 957.5"/><circle class="cls-7" cx="840.93" cy="847.49" r="19.24"/></g></svg>